<svg width="108" height="21" viewBox="0 0 108 21" fill="none" xmlns="http://www.w3.org/2000/svg">
<path d="M4.60742 8.09525H14.2053V11.6838H4.60742V8.09525ZM4.94919 16.2976H15.8002V20H0.363862V0.063812H15.4299V3.76625H4.94919V16.2976ZM28.471 4.44977C29.6862 4.44977 30.7684 4.6966 31.7177 5.19026C32.6861 5.66493 33.4455 6.40542 33.9962 7.41172C34.5468 8.39904 34.8221 9.67116 34.8221 11.2281V20H30.3792V11.9116C30.3792 10.6775 30.1039 9.76609 29.5532 9.1775C29.0216 8.58891 28.2621 8.29461 27.2748 8.29461C26.5723 8.29461 25.9362 8.4465 25.3666 8.75029C24.816 9.0351 24.3793 9.48129 24.0566 10.0889C23.7528 10.6964 23.6009 11.4749 23.6009 12.4242V20H19.1579V4.67762H23.4015V8.92118L22.6041 7.63956C23.1547 6.61427 23.9426 5.82632 24.9679 5.2757C25.9932 4.72508 27.1609 4.44977 28.471 4.44977ZM42.7294 20L36.2928 4.67762H40.8782L46.2324 17.864H43.954L49.5077 4.67762H53.7797L47.3147 20H42.7294ZM62.7797 20.2278C61.0329 20.2278 59.495 19.8861 58.1659 19.2026C56.8558 18.519 55.84 17.5887 55.1185 16.4115C54.397 15.2153 54.0363 13.8578 54.0363 12.3388C54.0363 10.8009 54.3875 9.44331 55.09 8.26613C55.8115 7.06996 56.7894 6.1396 58.0235 5.47506C59.2576 4.79154 60.6532 4.44977 62.2101 4.44977C63.7101 4.44977 65.0581 4.77255 66.2543 5.4181C67.4695 6.04467 68.4283 6.95604 69.1308 8.15221C69.8333 9.32939 70.1846 10.7439 70.1846 12.3958C70.1846 12.5666 70.1751 12.766 70.1561 12.9939C70.1371 13.2027 70.1181 13.4021 70.0991 13.5919H57.6533V11.0002H67.7638L66.0549 11.7692C66.0549 10.9718 65.8935 10.2787 65.5708 9.69014C65.248 9.10155 64.8018 8.64587 64.2322 8.32309C63.6626 7.98133 62.9981 7.81044 62.2386 7.81044C61.4791 7.81044 60.8051 7.98133 60.2165 8.32309C59.6469 8.64587 59.2007 9.11104 58.8779 9.71862C58.5551 10.3072 58.3937 11.0097 58.3937 11.8262V12.5097C58.3937 13.3451 58.5741 14.0856 58.9349 14.7312C59.3146 15.3577 59.8367 15.8419 60.5013 16.1836C61.1848 16.5064 61.9823 16.6678 62.8936 16.6678C63.7101 16.6678 64.4221 16.5444 65.0296 16.2976C65.6562 16.0507 66.2258 15.6805 66.7385 15.1868L69.1023 17.7501C68.3998 18.5475 67.5169 19.1646 66.4537 19.6013C65.3904 20.019 64.1657 20.2278 62.7797 20.2278ZM78.2974 20.2278C76.9873 20.2278 75.7247 20.0759 74.5096 19.7722C73.3134 19.4494 72.3641 19.0507 71.6615 18.576L73.1425 15.3862C73.845 15.8229 74.671 16.1836 75.6203 16.4684C76.5886 16.7343 77.538 16.8672 78.4683 16.8672C79.4936 16.8672 80.2151 16.7438 80.6328 16.4969C81.0695 16.2501 81.2879 15.9083 81.2879 15.4716C81.2879 15.1109 81.117 14.8451 80.7752 14.6742C80.4524 14.4843 80.0158 14.3419 79.4651 14.247C78.9145 14.1521 78.3069 14.0571 77.6424 13.9622C76.9968 13.8672 76.3418 13.7438 75.6773 13.5919C75.0127 13.4211 74.4051 13.1742 73.8545 12.8515C73.3039 12.5287 72.8577 12.092 72.5159 11.5414C72.1932 10.9907 72.0318 10.2787 72.0318 9.40534C72.0318 8.43701 72.3071 7.5826 72.8577 6.84212C73.4273 6.10163 74.2438 5.52253 75.307 5.10482C76.3703 4.66812 77.6424 4.44977 79.1234 4.44977C80.1676 4.44977 81.2309 4.5637 82.3132 4.79154C83.3954 5.01938 84.2973 5.35165 85.0188 5.78835L83.5378 8.94966C82.7973 8.51296 82.0473 8.21866 81.2879 8.06677C80.5474 7.89589 79.8259 7.81044 79.1234 7.81044C78.1361 7.81044 77.4146 7.94335 76.9589 8.20917C76.5032 8.47499 76.2753 8.81675 76.2753 9.23446C76.2753 9.6142 76.4367 9.899 76.7595 10.0889C77.1013 10.2787 77.5475 10.4306 78.0981 10.5446C78.6487 10.6585 79.2468 10.7629 79.8923 10.8578C80.5569 10.9338 81.2214 11.0572 81.886 11.2281C82.5505 11.399 83.1486 11.6458 83.6802 11.9686C84.2308 12.2724 84.677 12.6996 85.0188 13.2502C85.3605 13.7818 85.5314 14.4843 85.5314 15.3577C85.5314 16.3071 85.2466 17.152 84.677 17.8925C84.1074 18.614 83.2815 19.1836 82.1992 19.6013C81.136 20.019 79.8354 20.2278 78.2974 20.2278ZM94.5383 20.2278C92.7346 20.2278 91.3295 19.7722 90.3232 18.8608C89.3169 17.9304 88.8138 16.5539 88.8138 14.7312V1.28846H93.2567V14.6742C93.2567 15.3197 93.4276 15.8229 93.7693 16.1836C94.1111 16.5254 94.5763 16.6963 95.1649 16.6963C95.8674 16.6963 96.4655 16.5064 96.9591 16.1267L98.1553 19.2595C97.6996 19.5823 97.149 19.8291 96.5035 20C95.8769 20.1519 95.2218 20.2278 94.5383 20.2278ZM86.4499 8.43701V5.01938H97.0731V8.43701H86.4499ZM103.697 15.6425C103.051 15.6425 102.453 15.4906 101.902 15.1868C101.371 14.8641 100.944 14.4369 100.621 13.9052C100.298 13.3546 100.137 12.728 100.137 12.0255C100.137 11.323 100.298 10.7059 100.621 10.1743C100.944 9.64268 101.371 9.22497 101.902 8.92118C102.453 8.5984 103.051 8.43701 103.697 8.43701C104.342 8.43701 104.931 8.5984 105.462 8.92118C106.013 9.22497 106.45 9.64268 106.773 10.1743C107.095 10.7059 107.257 11.323 107.257 12.0255C107.257 12.728 107.095 13.3546 106.773 13.9052C106.45 14.4369 106.013 14.8641 105.462 15.1868C104.931 15.4906 104.342 15.6425 103.697 15.6425Z" fill="white"/>
</svg>
