<svg width="49" height="47" viewBox="0 0 49 47" fill="none" xmlns="http://www.w3.org/2000/svg">
<g clip-path="url(#clip0_2_231)">
<path d="M47.4346 36.487L47.4951 36.2047L47.178 35.7295L47.0301 35.539L33.1467 25.3558L32.6469 25.1008L32.4021 25.0247L31.9135 25.0095L1.92795 29.7916L1.45899 29.9597L1.013 30.3547L0.69588 30.8724L0.604553 31.3744V34.7473L0.746866 34.9334L0.838193 35.4371L14.7216 45.6203L15.0443 46.087L15.2774 46.1761L15.789 46.4182L16.2781 46.4333L16.5112 46.2697L46.4961 41.4876L46.885 41.3638L47.2273 41.1038L47.4346 40.7066L47.4963 40.2908V36.9179L47.4346 36.487Z" fill="white"/>
<path d="M46.8814 35.472C47.1185 35.6323 47.3125 35.8484 47.4462 36.1013C47.58 36.3543 47.6493 36.6363 47.6483 36.9224C47.6563 37.9466 47.6642 38.9712 47.6474 39.9952C47.6714 40.4351 47.5203 40.8665 47.2271 41.1952C46.934 41.524 46.5227 41.7234 46.083 41.7498C43.843 42.0983 41.6058 42.464 39.3673 42.8217C37.1382 43.178 34.9091 43.5337 32.6797 43.8887C30.4221 44.2491 28.1645 44.6095 25.9069 44.97C23.5443 45.3461 21.1816 45.7212 18.8187 46.0954C18.0374 46.2195 17.2568 46.3479 16.4756 46.4719C16.374 46.488 16.2703 46.49 16.1212 46.5023C16.3047 46.3165 16.4478 46.0949 16.5415 45.8513C16.6352 45.6076 16.6776 45.3472 16.6661 45.0865C16.6605 44.5647 16.6577 44.0428 16.6669 43.5211C16.6758 43.0218 16.7398 42.5205 16.709 42.0245C16.6669 41.5703 16.5866 41.1205 16.4688 40.6799C16.4281 40.5076 16.4469 40.4692 16.6182 40.4371C17.8979 40.1978 19.174 39.9394 20.4539 39.7017C21.7748 39.4564 23.0992 39.2297 24.4214 38.9913C25.4259 38.8101 26.4289 38.6206 27.4335 38.4401C28.5784 38.2344 45.4067 35.4269 46.5538 35.2334L46.8814 35.472Z" fill="#B6DBA8"/>
<path d="M16.2774 46.7697H16.267L15.7784 46.7549C15.7482 46.7538 15.7182 46.7489 15.6892 46.7402L15.4446 46.6641C15.4262 46.6582 15.4083 46.6509 15.391 46.6423L14.8909 46.3868L0.961954 36.1751C0.936719 36.1569 0.914245 36.1352 0.895202 36.1106L0.747475 35.9201L0.415892 35.4255C0.390588 35.3877 0.373275 35.345 0.365004 35.3002L0.274181 34.8094C0.270434 34.7892 0.268607 34.7687 0.268712 34.7481V31.3749C0.268698 31.3549 0.270343 31.335 0.273635 31.3153L0.364465 30.813C0.369332 30.7858 0.377604 30.7593 0.389083 30.7342L0.665403 30.1843C0.688011 30.1405 0.719944 30.1022 0.758968 30.0721L1.25414 29.693C1.28193 29.6719 1.31274 29.6553 1.34551 29.6436L1.81444 29.4757C1.83397 29.4686 1.85412 29.4632 1.87461 29.4599L31.8605 24.6777C31.8814 24.6745 31.9027 24.6732 31.9239 24.6739L32.4125 24.6892C32.4427 24.6902 32.4728 24.6952 32.5017 24.7039L32.7463 24.78C32.7646 24.7858 32.7823 24.7932 32.7994 24.8019L33.2994 25.0568C33.3157 25.0648 33.331 25.0744 33.3454 25.0853L47.229 35.2685C47.2543 35.2867 47.2767 35.3084 47.2957 35.333L47.4434 35.5235L47.7745 36.0186C47.7998 36.0565 47.8171 36.0991 47.8254 36.1439L47.9168 36.6347C47.9206 36.655 47.9223 36.6755 47.9222 36.696V40.0687C47.9223 40.0889 47.9206 40.109 47.9168 40.1289L47.8254 40.6312C47.8208 40.6576 47.8129 40.6833 47.8019 40.7077L47.5255 41.2598C47.5024 41.3039 47.4698 41.3423 47.4303 41.3726L46.9395 41.7479C46.9112 41.7703 46.8794 41.7878 46.8454 41.7999L46.3765 41.9679C46.357 41.975 46.3368 41.9803 46.3163 41.9837L16.3304 46.7659C16.3129 46.7685 16.2951 46.7698 16.2774 46.7697ZM15.8446 46.0841L16.2561 46.0967L46.1796 41.3244L46.5675 41.1855L46.9642 40.8823L47.171 40.472L47.2504 40.0386V36.7272L47.177 36.3343L46.794 35.7828L32.97 25.6434L32.5198 25.4136L32.3457 25.3595L31.9348 25.3469L2.0114 30.1192L1.62128 30.2587L1.22733 30.5607L1.01886 30.9727L0.940614 31.405V34.7175L1.0134 35.1098L1.39694 35.6608L15.2427 45.8166L15.6701 46.0299L15.8446 46.0841Z" fill="#5DA845"/>
<path d="M30.8046 27.3056L30.7038 26.8361L30.4926 26.3996L30.3699 26.1027L30.0527 25.7116L29.8432 25.4858L29.4443 25.1765L28.9826 24.9647L28.7164 24.8359L28.2368 24.7429L27.9416 24.7025L27.4844 24.7266L27.1958 24.758L26.7431 24.8403L26.2338 24.9642L25.6752 25.1154L25.0987 25.2751L25.0959 25.2762L25.0925 25.2779L25.0897 25.2796L25.0863 25.2824L25.0835 25.2852L25.0813 25.2886L25.079 25.2919L25.0774 25.2959L25.0762 25.2992L25.0757 25.3026L25.0185 25.841L24.9446 26.3867L24.8717 26.9061L24.814 27.3874L24.8011 27.8317L24.8292 28.1382L24.93 28.6083L25.0454 28.8879L25.2639 29.3411L25.5811 29.7322L25.7912 29.958L26.1901 30.2673L26.473 30.4046L26.9179 30.608L27.2457 30.6528L27.6928 30.7413L28.0318 30.7043L28.4329 30.6819L28.7478 30.5855L29.0773 30.4287L29.316 30.3469L29.5765 30.1799L29.8281 29.9765L30.0611 29.744L30.2668 29.4919L30.4377 29.2291L30.5665 28.9663L30.6685 28.6716L30.7738 28.3494L30.8147 28.0525L30.8327 27.6121L30.8046 27.3056Z" fill="white"/>
<path d="M29.864 25.5645C29.5302 25.2303 29.1046 25.0028 28.6413 24.9109C28.3378 24.8264 28.0208 24.8011 27.7077 24.8363C27.2272 24.9047 26.7586 25.0568 26.2848 25.173C26.1591 25.2038 26.033 25.2327 25.9071 25.2624L25.8934 25.3467C26.0043 25.4061 26.1204 25.4552 26.2404 25.4931C26.5672 25.566 26.9 25.6122 27.2269 25.6847C27.5776 25.7474 27.9039 25.9063 28.1694 26.1438C28.4349 26.3812 28.6292 26.6878 28.7306 27.0292C28.9893 27.7381 29.0631 28.5013 28.9447 29.2466C28.9358 29.5425 28.8583 29.8324 28.7183 30.0933C28.5783 30.3542 28.3796 30.579 28.1378 30.75L28.1648 30.8168L29.4371 30.4359C29.4371 30.4359 31.8437 28.0121 29.864 25.5645Z" fill="#B6DBA8"/>
<path d="M27.692 31.0772C27.6767 31.0771 27.6613 31.0762 27.6461 31.0745L26.8543 30.9382C26.8279 30.9333 26.8022 30.9252 26.7778 30.9141L26.0434 30.57C26.0223 30.5597 26.0023 30.5472 25.9838 30.5328L25.5849 30.2231L25.3349 29.9616L25.0028 29.5529C24.9862 29.5328 24.9723 29.5107 24.9612 29.4872L24.6192 28.7354C24.6116 28.7169 24.6056 28.6979 24.6011 28.6785L24.5005 28.2084L24.466 27.8627L24.4775 27.3779L24.7412 25.2669C24.7436 25.2466 24.7475 25.2265 24.7527 25.2068C24.7589 25.1855 24.7668 25.1649 24.7763 25.1449C24.8163 25.064 24.8843 25.0002 24.9677 24.9655L26.6633 24.5136L27.4474 24.3921L27.9235 24.3666C27.9445 24.365 27.9656 24.3659 27.9864 24.3694L28.2818 24.4096L28.7803 24.5059C28.8065 24.5108 28.8321 24.5189 28.8564 24.53L29.5896 24.8736C29.6109 24.8838 29.6311 24.8962 29.6497 24.9108L30.0486 25.2205C30.0629 25.2316 30.0763 25.2438 30.0886 25.2572L30.2987 25.4831L30.6308 25.8907C30.6473 25.9108 30.6613 25.9329 30.6724 25.9564L31.0143 26.7082C31.0221 26.7266 31.0281 26.7457 31.0324 26.7651L31.1336 27.2352L31.167 27.582L31.1506 28.0657L31.1057 28.3962C31.103 28.4159 31.0986 28.4353 31.0926 28.4542L30.8841 29.0758L30.7397 29.3767L30.5481 29.6754L30.3216 29.9567L30.0645 30.2144L29.7871 30.4415L29.4965 30.6297L29.2016 30.7737L28.5308 31.0034C28.5106 31.0095 28.4899 31.0137 28.469 31.0161L27.7128 31.0768C27.7057 31.0772 27.6991 31.0772 27.692 31.0772ZM27.0212 30.2861L27.7046 30.4037L28.3639 30.3512L28.9396 30.1547L29.171 30.0431L29.3948 29.897L29.6164 29.7149L29.8238 29.5064L30.0054 29.2793L30.1559 29.0451L30.2642 28.8186L30.4442 28.2736L30.482 28.006L30.4962 27.5989L30.4699 27.3358L30.3818 26.9364L30.0842 26.2841L29.6153 25.7348L29.2651 25.4634L28.6129 25.1581L27.9273 25.0399L27.2319 25.0924L26.8029 25.1712L25.3852 25.5443L25.1472 27.4271L25.1368 27.8408L25.1641 28.1067L25.2522 28.5072L25.3557 28.7605L25.5493 29.1595L26.0368 29.7285L26.3668 29.9796L27.0212 30.2861Z" fill="#5DA845"/>
<path d="M21.9546 21.6119L21.9367 20.7877L21.7652 20.2583L21.688 20.0734L21.4173 19.6055L21.0526 19.2061L20.9136 19.071L20.499 18.7842L20.3314 18.6878L19.9106 18.5309L19.7594 18.4732L19.5785 18.4267L19.374 18.3936L19.1548 18.374L19.0685 18.4043L18.9532 18.402L18.8389 18.4076L18.7301 18.4205L18.4909 18.4065L18.296 18.4463L18.1273 18.4978L17.9912 18.5595L17.5451 18.7292L17.4029 18.8307L16.9731 19.1299L16.8695 19.2688L16.498 19.6789L16.2223 20.1546L16.1926 20.3418L16.0211 20.8763L16.0033 21.701L15.9988 25.0252L16.0033 28.3488L16.0211 29.173L16.1029 29.3697L16.2699 29.888L16.5411 30.3558L16.7042 30.5144L17.0442 30.8898L17.2577 31.013L17.6263 31.2736L17.8461 31.357L18.1088 31.4243L18.3794 31.5341L18.5839 31.5677L18.803 31.5868L19.0293 31.5912L19.2534 31.58L19.4675 31.5543L19.6619 31.515L19.9707 31.3968L20.2154 31.3217L20.4127 31.2315L20.8037 30.9604L20.9847 30.8309L21.3378 30.4449L21.4599 30.2818L21.7355 29.8062L21.9053 29.2828L21.9367 29.0845L21.9546 28.2598L21.9591 24.9361L21.9546 21.6119Z" fill="white"/>
<path d="M18.6731 18.5288C19.2213 18.4336 19.7854 18.5066 20.2914 18.7382C20.803 18.953 21.239 19.3152 21.5438 19.7787C21.8487 20.2422 22.0087 20.786 22.0032 21.3408C22.0159 23.8334 21.9968 26.3262 22.0071 28.8188C21.9804 29.4789 21.7329 30.111 21.3045 30.6139C20.876 31.1168 20.2911 31.4614 19.6436 31.5926C19.5313 31.6166 19.4162 31.6275 19.2505 31.6523C19.5599 31.4471 19.8101 31.1643 19.9762 30.8322C20.1423 30.5001 20.2184 30.1302 20.197 29.7595C20.2101 27.2765 20.2007 24.7932 20.2026 22.3101C20.1786 21.3778 19.8784 20.4737 19.34 19.7122C19.1054 19.3501 18.914 18.9599 18.6731 18.5288Z" fill="#B6DBA8"/>
<path d="M19.046 31.9269L18.5547 31.9023L18.1148 31.8131L17.5068 31.5871L17.2907 31.4673L16.8535 31.1658L16.6719 30.9962L16.2927 30.582C16.2763 30.5644 16.262 30.5449 16.25 30.524L15.9791 30.0562L15.8828 29.8329L15.7012 29.2765C15.6913 29.2453 15.6859 29.2129 15.6853 29.1802L15.6673 28.3556L15.6629 25.0256L15.6853 20.8686L15.7209 20.6248L15.9032 20.0509C15.9104 20.0283 15.9199 20.0066 15.9316 19.986L16.3512 19.3144L16.7255 18.9029C16.7411 18.8855 16.7588 18.8699 16.778 18.8564L17.3537 18.4529C17.3701 18.4416 17.3875 18.4317 17.4056 18.4234L17.6031 18.3333L18.1973 18.1243L18.6646 18.0469L18.9125 18.0341L19.4033 18.0584L19.8432 18.1476L20.4517 18.3733L20.6678 18.4931L21.1049 18.7946L21.2866 18.9645L21.6658 19.3784C21.682 19.3963 21.6963 19.4159 21.7084 19.4367L21.9793 19.9045L22.0756 20.1288L22.2568 20.6839C22.2671 20.7151 22.2727 20.7477 22.2732 20.7805L22.2907 21.6048V21.6114L22.2956 24.9353L22.2732 29.0916L22.2376 29.3361L22.0554 29.9101C22.0481 29.9326 22.0385 29.9542 22.027 29.9747L21.6062 30.6471L21.2336 31.0576C21.2175 31.0749 21.1997 31.0907 21.1805 31.1046L20.6043 31.5078C20.588 31.5194 20.5706 31.5292 20.5524 31.5374L20.3549 31.6276L19.7612 31.8361L19.2933 31.9138L19.046 31.9269ZM16.8131 30.1552L17.2782 30.6482L17.7952 30.982L18.4633 31.2085L18.8326 31.2518L19.0362 31.2551L19.5953 31.1855L20.2448 30.9388L20.7608 30.5782L21.1914 30.0803L21.4267 29.6694L21.605 29.0314L21.6187 28.2527L21.6236 24.9353L21.6023 20.8443L21.3779 20.2022L21.1454 19.8058L20.6793 19.3122L20.1633 18.9785L19.4947 18.7522L19.1259 18.709L18.9223 18.706L18.3626 18.7752L17.7126 19.0223L17.1977 19.3825L16.7677 19.8802L16.5318 20.2914L16.3535 20.9291L16.3392 21.7082L16.3349 25.0256L16.3562 29.1167L16.58 29.7575L16.8131 30.1552Z" fill="#5DA845"/>
<path d="M37.0936 18.6161L37.0533 18.2911L36.9877 17.9706L36.8998 17.6669L36.7922 17.3924L36.6695 17.1565L36.4033 16.868L36.2341 16.6298L35.8509 16.3727L35.6436 16.1755L35.1707 15.9889L34.9404 15.8707L34.4132 15.7838L33.6165 15.8931L33.3806 15.8791L30.1735 16.3856L26.9686 16.9016L26.1764 17.0461L25.6912 17.2977L25.4872 17.3902L25.0799 17.7314L24.7533 18.1555L24.6165 18.3051L24.4132 18.7634L24.3246 18.9377L24.2591 19.1618L24.2103 19.5394L24.1823 19.7226L24.1734 19.9277L24.1823 20.1462L24.2103 20.3703L24.2552 20.5911L24.3162 20.8001L24.3902 20.9895L24.5202 21.2668L24.6429 21.5027L24.7757 21.6898L25.0782 22.0294L25.2542 22.1969L25.6688 22.4837L25.8761 22.5902L26.3719 22.7885L26.8992 22.8754L27.1339 22.8894L27.9323 22.7801L31.1383 22.2736L34.3437 21.7571L35.1365 21.6131L35.3528 21.5144L35.8251 21.269L36.233 20.9278L36.3933 20.7519L36.6958 20.3541L36.8084 20.1328L36.8914 19.847L37.0533 19.4974L37.0936 19.2313L37.1071 18.9338L37.0936 18.6161Z" fill="white"/>
<path d="M27.6368 22.8871C27.8686 22.7141 28.0564 22.4891 28.1853 22.2303C28.3143 21.9714 28.3806 21.6859 28.379 21.3967C28.4529 20.496 28.2162 19.5971 27.7083 18.8495C27.4535 18.4212 27.2106 17.9855 26.9739 17.5468C26.9388 17.4905 26.9191 17.4258 26.9169 17.3594C26.9148 17.293 26.9302 17.2273 26.9617 17.1688C26.9932 17.1102 27.0395 17.0611 27.0961 17.0263C27.1527 16.9915 27.2175 16.9723 27.2839 16.9706C28.083 16.8452 28.8797 16.7044 29.6791 16.5803C30.4803 16.456 31.2839 16.3472 32.0858 16.2267C32.738 16.1287 33.3917 16.0369 34.0401 15.9174C34.6277 15.8284 35.2275 15.959 35.7249 16.2843C36.1531 16.5397 36.5107 16.8979 36.7656 17.3264C37.0205 17.7548 37.1644 18.24 37.1846 18.7381C37.2048 19.2363 37.1004 19.7315 36.8809 20.1792C36.6615 20.6269 36.334 21.0127 35.9279 21.3019C35.3891 21.6242 34.7819 21.8147 34.1556 21.8577C32.1565 22.1744 30.1578 22.4924 28.1591 22.8117C28.0013 22.8367 27.8429 22.8575 27.6368 22.8871Z" fill="#B6DBA8"/>
<path d="M27.1334 23.2256L27.1137 23.2251L26.8791 23.2111L26.3165 23.12C26.2926 23.1161 26.269 23.1096 26.2465 23.1006L25.5144 22.7827L25.0625 22.4733L24.8458 22.2727L24.5241 21.9135L24.3681 21.6969L24.0026 20.9223L23.8806 20.4373L23.8368 19.9418L23.8844 19.3873L23.9266 19.1113L24.0015 18.8432L24.3162 18.1532C24.3253 18.135 24.3362 18.1177 24.3484 18.1015L24.8311 17.5048L25.2704 17.1325C25.2894 17.1168 25.3099 17.1031 25.3317 17.0917L26.0364 16.7401C26.0617 16.7286 26.0884 16.7202 26.1157 16.7153L26.908 16.5711L34.1327 15.4368C34.1543 15.434 34.1761 15.4331 34.1978 15.4341L34.4325 15.448L34.9945 15.5389C35.0185 15.5427 35.042 15.5492 35.0645 15.5583L35.7972 15.8764L36.2491 16.1859L36.4652 16.3867L36.787 16.7456L36.9429 16.9623L37.309 17.7368L37.4315 18.221L37.4747 18.7181L37.4271 19.2726L37.385 19.5479L37.31 19.816L36.9954 20.506C36.9862 20.5241 36.9754 20.5414 36.9631 20.5577L36.48 21.1549L36.0406 21.5267C36.0218 21.5422 36.0014 21.5557 35.9799 21.5672L35.2746 21.9192C35.2495 21.9307 35.223 21.939 35.1958 21.9439L34.4035 22.0881L27.1789 23.2223C27.1638 23.2246 27.1486 23.2256 27.1334 23.2256ZM26.4616 22.4626L27.1187 22.5521L27.8864 22.447L35.0344 21.2897L35.6369 20.9877L36.016 20.6699L36.1452 20.5249L36.4094 20.1755L36.6792 19.587L36.73 19.4029L36.8028 18.7173L36.7684 18.3305L36.6732 17.9529L36.3711 17.3127L36.2617 17.1639L35.8256 16.7054L35.2823 16.3681L34.8495 16.1963L34.1929 16.1071L33.4258 16.2122L26.2772 17.3694L25.6742 17.6714L25.295 17.9893L25.1664 18.1338L24.9021 18.4837L24.6324 19.0721L24.5815 19.2562L24.5087 19.943L24.5438 20.3286L24.6385 20.7062L24.9405 21.3472L25.0494 21.4952L25.486 21.9535L26.0293 22.2911L26.4616 22.4626Z" fill="#5DA845"/>
<path d="M14.2892 21.1335L14.2315 20.3777L14.1525 19.5552L14.0684 18.7125L14.0679 18.712L14.0673 18.7108L14.0662 18.7097L14.064 18.708L14.0617 18.7058L14.0589 18.7035L14.0556 18.7013L14.0522 18.6985L14.0488 18.6957L14.0455 18.6929L14.0427 18.6907L14.0399 18.6884L14.0376 18.6867L14.0365 18.6856L14.0354 18.6851L13.2863 18.7652L12.5332 18.8285L11.8239 18.884L11.1757 18.9434L10.5913 19.0369L10.0383 19.2358L9.53346 19.5401L9.09643 19.9373L8.74345 20.4124L8.48796 20.9475L8.3406 21.5212L8.30643 22.1123L8.38711 22.6978L8.57873 23.2548L8.87512 23.7624L8.90145 23.7764L9.26396 24.2005L9.73404 24.5362L9.74077 24.5524L10.277 24.8045L10.2579 24.8062L10.8244 24.9502L11.4087 24.9793L11.444 24.976L12.0301 24.8886L12.5876 24.6886L13.0952 24.3843L13.5339 23.9871L13.8858 23.5119L14.1385 22.9774L14.2808 22.4037L14.3138 21.807L14.2892 21.1335Z" fill="white"/>
<path d="M11.8111 24.9856C12.0759 24.7735 12.286 24.5009 12.4237 24.1909C12.5615 23.8808 12.623 23.5422 12.603 23.2035C12.6267 22.0322 12.2383 20.8896 11.5057 19.9753C11.3829 19.7959 11.2868 19.5995 11.2206 19.3924C11.1559 19.1946 11.2464 19.0661 11.4751 19.0447C12.175 18.9794 12.8742 18.9051 13.5737 18.8341C13.7457 18.8166 13.9176 18.7982 14.1334 18.7756C14.2094 19.6752 14.3085 20.5632 14.3495 21.4539C14.373 21.9151 14.3369 22.3773 14.2423 22.8293C14.0958 23.3888 13.7866 23.8924 13.3538 24.2763C12.921 24.6601 12.3842 24.9069 11.8111 24.9856Z" fill="#B6DBA8"/>
<path d="M11.4005 25.3157H11.3923L10.8079 25.2867C10.7855 25.2857 10.7633 25.2822 10.7416 25.2763L10.1753 25.1323C10.1537 25.1269 10.1327 25.1194 10.1124 25.1099L9.58554 24.8566C9.56909 24.8484 9.52748 24.8254 9.51278 24.8151C9.50892 24.8128 9.46403 24.7811 9.46074 24.7784L9.05803 24.4665L8.64384 24.0329C8.63894 24.0272 8.6105 23.9905 8.60609 23.9844L8.28602 23.4639C8.27783 23.4501 8.25703 23.4045 8.25101 23.39L8.04258 22.8149C8.03494 22.7942 8.02941 22.7727 8.02619 22.7509L7.93808 22.1662C7.93479 22.1444 7.93367 22.1223 7.93479 22.1003L7.96267 21.5099C7.96379 21.4879 7.96708 21.4659 7.97254 21.4445L8.11535 20.8711C8.12074 20.8498 8.12802 20.829 8.13727 20.809L8.38947 20.2744C8.39899 20.2543 8.41055 20.2353 8.42393 20.2176L8.77635 19.7426C8.78923 19.7249 8.80387 19.7086 8.82012 19.6939L9.25833 19.2964C9.27472 19.2816 9.29251 19.2684 9.31142 19.257L9.81918 18.9525C9.83816 18.9412 9.85812 18.9318 9.87886 18.9243L10.4364 18.7249C10.4559 18.7178 10.4761 18.7126 10.4966 18.7095L11.087 18.6154C11.0946 18.6141 11.1384 18.6099 11.1455 18.6091L13.9995 18.3514C14.0634 18.3443 14.1281 18.356 14.1855 18.3851C14.1904 18.3886 14.2348 18.4146 14.2397 18.4184C14.2473 18.4244 14.2764 18.4474 14.284 18.4543C14.3 18.4684 14.315 18.4837 14.3289 18.5C14.3525 18.5235 14.3712 18.5515 14.3839 18.5823C14.3965 18.6131 14.4029 18.6461 14.4027 18.6794L14.6243 21.1086L14.6494 21.795L14.6171 22.4223C14.6158 22.4437 14.6125 22.4648 14.6073 22.4855L14.4645 23.0589C14.4591 23.0803 14.4519 23.101 14.4426 23.121L14.1904 23.6556C14.1808 23.6755 14.1695 23.6946 14.1564 23.7125L13.8041 24.1877C13.7909 24.2053 13.7761 24.2217 13.7598 24.2364L13.3215 24.6339C13.305 24.6486 13.2872 24.6618 13.2685 24.6733L12.7607 24.9776C12.7419 24.9889 12.7218 24.9983 12.701 25.0054L12.1435 25.2052C12.123 25.2127 12.1017 25.2182 12.08 25.2216L11.494 25.3091C11.4629 25.3129 11.4317 25.3151 11.4005 25.3157ZM10.8746 24.6165L11.425 24.6438L11.9465 24.5617L12.4433 24.3839L12.8942 24.1136L13.2832 23.7607L13.5962 23.3388L13.82 22.8641L13.9475 22.3542L13.9776 21.7893L13.9529 21.1464L13.7641 19.0526L11.2067 19.2789L10.6327 19.3686L10.1365 19.5462L9.68563 19.8167L9.29608 20.1697L8.98365 20.5913L8.75982 21.0659L8.63291 21.5748L8.60826 22.0989L8.686 22.6179L8.87587 23.1429L9.18718 23.6321L9.5078 23.9697L9.86562 24.2419L10.3739 24.4895L10.8746 24.6165Z" fill="#5DA845"/>
<path d="M20.6934 12.4069L20.6654 12.1828L20.6206 11.962L20.56 11.753L20.4855 11.5637L20.3555 11.2858L20.2328 11.0504L20.1 10.8633L19.7975 10.5238L19.6216 10.3557L19.207 10.0694L18.7341 9.8828L18.5038 9.76458L17.9766 9.67773L17.1798 9.78699L13.9739 10.2935L10.7684 10.8095L9.97451 10.9535L9.73975 10.9401L9.25454 11.1911L8.82648 11.5418L8.47238 11.9783L8.31662 12.0494L8.08354 12.5397L7.97652 12.6573L7.87959 13.1588L7.81852 13.2787L7.7737 13.4333L7.83925 13.8239L7.82468 13.9174L7.8202 14.0217L7.82468 14.1332L7.83925 14.2475L7.86222 14.3601L7.89304 14.4665L7.87959 14.694L7.95355 14.8834L8.03759 15.0453L8.12948 15.1742L8.33903 15.5832L8.47742 15.7148L8.81752 16.0908L9.23213 16.3771L9.43944 16.4836L9.93529 16.6825L10.4625 16.7693L10.6973 16.7833L11.4957 16.6735L14.7022 16.167L17.9071 15.651L18.6993 15.507L18.9156 15.4084L19.3885 15.163L19.7964 14.8212L19.9572 14.6458L20.2592 14.248L20.3718 14.0261L20.5511 13.6154L20.6166 13.3908L20.657 13.1246L20.6934 12.8299L20.7029 12.6254L20.6934 12.4069Z" fill="white"/>
<path d="M11.6618 16.6889C11.9028 16.5011 12.0869 16.25 12.1935 15.9636C12.3001 15.6771 12.325 15.3668 12.2654 15.067C12.2003 14.2526 11.8664 13.4829 11.3163 12.8788C10.8717 12.3114 10.4976 11.6888 10.0567 11.0379C10.501 10.955 10.88 10.8783 11.2611 10.8146C12.1741 10.6621 13.0877 10.513 14.0019 10.3676C14.9181 10.2224 15.8349 10.0812 16.7524 9.94412C17.0558 9.89818 17.3649 9.88137 17.664 9.81714C17.9599 9.76728 18.2629 9.77813 18.5544 9.84894C18.846 9.91968 19.1202 10.049 19.3603 10.229C19.777 10.4897 20.1227 10.8495 20.3667 11.2763C20.6106 11.7031 20.7451 12.1837 20.7582 12.6751C20.7713 13.1665 20.6626 13.6535 20.4417 14.0928C20.2209 14.532 19.8948 14.9097 19.4925 15.1923C19.0555 15.4779 18.5557 15.6533 18.0359 15.7037C15.9797 16.0301 13.9238 16.3582 11.8681 16.688C11.7994 16.6924 11.7305 16.6927 11.6618 16.6889Z" fill="#B6DBA8"/>
<path d="M10.6974 17.1191L10.6777 17.1185L10.443 17.1045L9.88051 17.014C9.85635 17.0099 9.83268 17.0032 9.80992 16.9943L9.07839 16.6761L8.62638 16.3667L8.40975 16.1662L8.08801 15.807L7.93204 15.5908L7.56659 14.8158L7.44403 14.3316L7.40025 13.8361L7.44837 13.2808L7.49053 13.005L7.56547 12.7366L7.88007 12.0467C7.88925 12.0285 7.90003 12.0113 7.91236 11.9952L8.39498 11.3977L8.83431 11.0259C8.85329 11.0103 8.87381 10.9967 8.89559 10.9854L9.60093 10.6333C9.626 10.6218 9.65247 10.6136 9.67972 10.6087L10.472 10.4645L17.6966 9.3303C17.7183 9.32743 17.74 9.32652 17.7617 9.32757L17.9965 9.34151L18.5585 9.43262C18.5824 9.43641 18.606 9.44292 18.6285 9.45202L19.3606 9.76992L19.8125 10.0791L20.0292 10.2801L20.5069 10.8555L20.8729 11.6303L20.995 12.1153L21.0387 12.6108L20.9905 13.1661L20.9495 13.4405L20.874 13.7094L20.5594 14.3994C20.5503 14.4177 20.5394 14.4351 20.5271 14.4514L20.0439 15.0483L19.6052 15.4199C19.5862 15.4356 19.5657 15.4494 19.5439 15.4609L18.8391 15.8125C18.8138 15.824 18.7871 15.8324 18.7598 15.8374L17.9675 15.9816L10.7428 17.1158C10.7278 17.118 10.7126 17.1191 10.6974 17.1191ZM10.0255 16.3563L10.6826 16.4455L11.4492 16.3404L18.5983 15.1832L19.2013 14.8812L19.58 14.5635L19.7091 14.4183L19.9734 14.0692L20.2431 13.4805L20.294 13.2964L20.3668 12.6097L20.3318 12.224L20.2371 11.8464L19.9345 11.2054L19.8256 11.058L19.3896 10.5989L18.8463 10.2616L18.4134 10.0901L17.7568 10.0006L16.9892 10.1057L9.84108 11.2628L9.23814 11.5649L8.85897 11.8828L8.72982 12.0277L8.46669 12.3768L8.19635 12.9656L8.14551 13.15L8.07218 13.8372L8.1072 14.223L8.20238 14.5997L8.50444 15.2409L8.61328 15.3884L9.04995 15.8469L9.59322 16.1845L10.0255 16.3563Z" fill="#5DA845"/>
<path d="M29.7127 4.03582L29.6953 3.21164L29.5233 2.68216L29.2449 2.19583L28.8695 1.7717L28.4128 1.426L28.3663 1.3145L27.8593 1.09487L27.7842 1.02147L27.271 0.941907L27.2121 0.90829L27.1348 0.878595L27.0429 0.855063L26.9387 0.837694L26.8267 0.828169L26.7112 0.825928L26.5969 0.831531L26.4882 0.844978L26.3891 0.864588L26.3028 0.890921L26.2339 0.922858L26.184 0.958156L25.6517 1.0534L25.5951 1.12848L25.0797 1.36324L24.6275 1.69269L24.2566 2.10283L24.2297 2.27091L23.9507 2.76565L23.7792 3.30016L23.7619 4.12491L23.7568 7.44911L23.7619 10.7727L23.7792 11.5969L23.9507 12.1264L24.028 12.3119L24.2992 12.7797L24.6639 13.1786L24.8029 13.3137L25.2169 13.6005L25.3845 13.6974L25.6041 13.7809L25.9565 13.9115L26.1381 13.958L26.342 13.9916L26.5616 14.0107L26.7874 14.0151L27.0116 14.0039L27.2256 13.9782L27.4206 13.9389L27.5887 13.8874L27.9736 13.7456L28.1708 13.6554L28.5619 13.3842L28.7434 13.2548L29.0958 12.8688L29.218 12.7057L29.4936 12.2301L29.6634 11.7067L29.6953 11.509L29.7127 10.6842L29.7177 7.36002L29.7127 4.03582Z" fill="white"/>
<path d="M27.4337 13.9892C27.6032 13.7974 27.7326 13.5735 27.814 13.3308C27.8954 13.088 27.9272 12.8314 27.9074 12.5761C27.9037 10.6733 27.9156 8.77031 27.9099 6.86739C27.9077 6.1269 27.895 5.38523 27.8488 4.64642C27.7797 4.05293 27.5612 3.48668 27.2136 3.00063C26.8974 2.50089 26.5274 2.03523 26.1819 1.55396C26.1486 1.5071 26.1186 1.45797 26.0921 1.40692C25.9077 1.05422 25.9589 1.0002 26.3456 0.949847C26.9845 0.838665 27.6423 0.943985 28.2146 1.24911C28.6632 1.46031 29.0439 1.79237 29.3142 2.20801C29.5846 2.62365 29.7336 3.10639 29.7447 3.60203C29.7725 6.22901 29.765 8.85659 29.7384 11.4836C29.7182 11.8618 29.6131 12.2306 29.431 12.5626C29.2489 12.8946 28.9943 13.1814 28.6862 13.4016C28.3273 13.7038 27.8954 13.9064 27.4337 13.9892Z" fill="#B6DBA8"/>
<path d="M26.8041 14.3499L26.3133 14.3256L25.8733 14.2364L25.2649 14.0107L25.0488 13.8909L24.6116 13.5897C24.596 13.579 24.5814 13.5671 24.5678 13.5538L24.4294 13.4189L24.0508 13.0056C24.0346 12.9877 24.0203 12.9681 24.008 12.9473L23.7372 12.4795L23.6409 12.2554L23.4598 11.7C23.4494 11.6689 23.4439 11.6363 23.4434 11.6035L23.4259 10.7792L23.421 7.44865L23.4434 3.29245L23.479 3.04816L23.6612 2.47449C23.6684 2.45196 23.6779 2.43022 23.6896 2.40965L24.1093 1.73774L24.4835 1.32655C24.4994 1.30911 24.517 1.29334 24.5361 1.27949L25.1122 0.876509C25.1286 0.864981 25.146 0.855 25.1642 0.846687L25.3612 0.756677L25.956 0.547946L26.4221 0.470528L26.6705 0.457642L27.1619 0.481993L27.6013 0.571177L28.2097 0.796878L28.4259 0.916709L28.863 1.21765C28.8787 1.2283 28.8933 1.2404 28.9068 1.25376L29.0453 1.38894L29.4239 1.80205C29.4398 1.81989 29.454 1.83933 29.466 1.86005L29.7374 2.32759L29.8342 2.55247L30.0153 3.10783C30.0253 3.139 30.0306 3.17142 30.0312 3.20413L30.0487 4.02846V4.03497L30.0542 7.35865L30.0312 11.5152L29.9956 11.7594L29.8134 12.3331C29.8062 12.3557 29.7967 12.3774 29.785 12.398L29.3653 13.0696L28.991 13.4811C28.9752 13.4985 28.9576 13.5143 28.9385 13.5281L28.3635 13.9311C28.3469 13.9425 28.3293 13.9525 28.3109 13.961L28.1134 14.0509L27.5192 14.2597L27.0525 14.3371L26.8041 14.3499ZM25.0165 13.0524L25.5533 13.4056L26.2219 13.6319L26.5907 13.6751L26.7942 13.6781L27.3545 13.6086L28.0034 13.3624L28.5189 13.0012L28.949 12.5039L29.1848 12.0924L29.3631 11.455L29.3768 10.6761L29.3823 7.35865L29.3604 3.26758L29.1366 2.6255L28.9035 2.22963L28.4581 1.75497L27.9214 1.40206L27.2533 1.17581L26.8834 1.13233L26.681 1.1296L26.1212 1.19881L25.4717 1.44531L24.9558 1.80643L24.5258 2.30352L24.2899 2.71498L24.1115 3.35268L24.0978 4.13127L24.0929 7.44872L24.1143 11.5398L24.3386 12.1816L24.5711 12.5783L25.0165 13.0524Z" fill="#5DA845"/>
<path d="M37.4231 9.42765L37.3407 8.85559L37.2735 8.76819L37.0998 8.25328L37.023 8.167L36.9182 8.05774L36.7899 7.93L36.6656 7.62688L36.5905 7.5546L36.5087 7.47784L36.4235 7.39996L36.3378 7.32376L36.2554 7.25261L35.9859 7.19546L35.8358 7.06995L35.7041 6.9635L35.5948 6.88001L35.0889 6.77468L34.9701 6.69232L34.4059 6.67383L33.8428 6.76964L33.7308 6.70913L33.1783 6.90859L32.6735 7.21283L32.2359 7.61007L32.1855 7.61455L31.8336 8.08968L31.5809 8.62419L31.4381 9.19793L31.4061 9.79464L31.4302 10.4681L31.4879 11.2239L31.5669 12.047L31.6504 12.8846L31.651 12.8897L31.6532 12.8919L31.6549 12.8936L31.6577 12.8958L31.6605 12.8981L31.6667 12.9031L31.67 12.9059L31.6739 12.9087L31.6767 12.911L31.6795 12.9132L31.6807 12.9138L31.6829 12.916L31.684 12.9166L32.4382 12.8364L33.1867 12.7731L33.8955 12.7177L34.5437 12.6583L34.579 12.6549L35.1701 12.5608L35.7276 12.3613L36.2353 12.0565L36.6734 11.6593L37.0253 11.1842L37.2774 10.6496L37.4208 10.0765L37.3906 10.0075L37.4231 9.42765Z" fill="white"/>
<path d="M35.025 12.6324C35.1615 12.5437 35.2753 12.424 35.357 12.2832C35.4387 12.1423 35.4862 11.9842 35.4954 11.8216C35.6087 11.0344 35.53 10.2316 35.2661 9.48132C34.9495 8.73383 34.552 8.02317 34.0807 7.3621C33.986 7.19626 33.9195 7.01437 33.8239 6.80459C34.3491 6.68125 34.898 6.70219 35.4123 6.86524C35.9267 7.02831 36.3874 7.32736 36.7456 7.73077C37.1039 8.13425 37.3464 8.62709 37.4475 9.15706C37.5487 9.68709 37.5045 10.2346 37.3199 10.7416C37.141 11.2329 36.8339 11.6674 36.4303 12C36.0267 12.3324 35.5415 12.5508 35.025 12.6324Z" fill="#B6DBA8"/>
<path d="M31.684 13.2531C31.6318 13.2531 31.5803 13.2409 31.5336 13.2175C31.5158 13.2085 31.4988 13.198 31.4827 13.1863C31.4718 13.1786 31.4614 13.1703 31.4515 13.1614L31.4443 13.1554C31.4086 13.1273 31.3789 13.0923 31.357 13.0525C31.3351 13.0127 31.3214 12.9689 31.3169 12.9236L31.0947 10.494L31.0696 9.80757L31.1029 9.17998C31.1038 9.15883 31.107 9.13782 31.1122 9.11737L31.2545 8.54391C31.2595 8.52227 31.267 8.50119 31.2769 8.4813L31.5297 7.94671C31.5391 7.92689 31.5503 7.90791 31.5631 7.89005L31.9155 7.41486C31.9287 7.39728 31.9436 7.38103 31.9597 7.36618L32.398 6.96892C32.4144 6.95407 32.4322 6.9409 32.4511 6.92949L32.9583 6.62504C32.9772 6.61363 32.9972 6.60424 33.018 6.59682L33.5755 6.39714C33.5963 6.38965 33.6177 6.38433 33.6396 6.38125L34.2261 6.29398C34.2592 6.28782 34.2931 6.28551 34.3267 6.28712L34.9111 6.31611C34.9335 6.31723 34.9557 6.32053 34.9774 6.32599L35.5442 6.46991C35.5659 6.4753 35.587 6.48301 35.6071 6.49288L36.1335 6.74592C36.1587 6.75832 36.1832 6.77212 36.2068 6.78725C36.2095 6.78914 36.226 6.80034 36.2402 6.8105C36.2473 6.81512 36.2544 6.82009 36.261 6.82528L36.6615 7.13556L36.9745 7.46136L36.9766 7.46353L37.0741 7.56803C37.0806 7.57517 37.1096 7.6132 37.1157 7.62112L37.433 8.13875C37.4401 8.15052 37.4604 8.19429 37.4664 8.20683L37.6765 8.78792C37.6841 8.80858 37.6897 8.82994 37.6929 8.85165L37.781 9.43603C37.7843 9.45788 37.7853 9.47994 37.7843 9.50201L37.7563 10.0924C37.7553 10.1145 37.752 10.1363 37.7465 10.1578L37.6037 10.7312C37.5983 10.7525 37.591 10.7733 37.5818 10.7933L37.3296 11.3281C37.32 11.348 37.3087 11.367 37.2956 11.3848L36.9439 11.8597C36.9306 11.8775 36.9155 11.894 36.899 11.9089L36.4602 12.3065C36.4441 12.3212 36.4264 12.3344 36.4077 12.3456L35.9005 12.6498C35.8815 12.6612 35.8616 12.6706 35.8408 12.678L35.2832 12.8777C35.2637 12.8847 35.2435 12.89 35.2231 12.8933L34.6321 12.9874C34.6245 12.9885 34.5818 12.9926 34.5741 12.9934L31.7196 13.2512C31.7078 13.2525 31.6959 13.2531 31.684 13.2531ZM31.7721 9.2484L31.7409 9.8136L31.7661 10.456L31.9548 12.5499L34.5128 12.3237L35.0868 12.234L35.5831 12.0562L36.0334 11.7858L36.4229 11.4329L36.7354 11.0114L36.9592 10.5364L37.0861 10.0276L37.1108 9.50334L37.0325 8.98465L36.8437 8.4591L36.5012 7.93824L36.4865 7.92318L36.2112 7.63239L35.8517 7.35883L35.8506 7.35771L35.3456 7.11307L34.8444 6.98587L34.2939 6.95855L33.7725 7.04094L33.2756 7.21876L32.8254 7.48903L32.4358 7.84194L32.1233 8.26405L31.899 8.73847L31.7721 9.2484Z" fill="#5DA845"/>
<path d="M20.9804 4.14454L20.8796 3.67446L20.6678 3.23855L20.5456 2.9416L20.2285 2.55053L19.8257 2.23676L19.6195 2.01545L19.1578 1.80366L18.6519 1.69833L18.1201 1.70225L17.9162 1.60364L17.4237 1.73923L17.2265 1.71233L16.9996 1.73699L16.6606 1.98127L16.4903 2.03338L16.3121 2.11854L16.1328 2.2334L15.9597 2.37347L15.7989 2.53372L15.6571 2.70741L15.5395 2.88837L15.4504 3.06935L15.3938 3.2436L15.1607 3.56912L15.1282 3.80276L14.9949 4.23026L15.0189 4.4908L15.0049 4.97713L15.1058 5.44665L15.2207 5.7268L15.4397 6.18007L15.7563 6.57115L15.967 6.79695L16.3659 7.10621L16.6483 7.24348L17.0931 7.44686L17.5727 7.53987L17.868 7.58021L18.3252 7.55612L18.6138 7.52474L19.0665 7.44238L19.5758 7.31856L20.1338 7.16728L20.7109 7.00704L20.7137 7.00647L20.7165 7.00479L20.7199 7.00257L20.7227 7.00033L20.7261 6.99753L20.7283 6.99417L20.7305 6.99081L20.7322 6.98689L20.7333 6.98352L20.7339 6.98016L20.791 6.44172L20.8572 5.95315L20.9059 5.6097L20.9378 5.37662L20.9956 4.89533L21.0084 4.45102L20.9804 4.14454Z" fill="white"/>
<path d="M18.9044 7.49914C19.054 7.30416 19.1635 7.08151 19.2266 6.84393C19.2896 6.60644 19.3049 6.35879 19.2717 6.11527C19.2305 5.12559 18.8827 4.17324 18.2762 3.3901C17.9423 2.9488 17.596 2.5168 17.2549 2.08101C17.1012 1.88465 17.1505 1.76821 17.3912 1.71865C17.8146 1.6175 18.2552 1.61208 18.6809 1.70278C19.1067 1.79348 19.5068 1.97801 19.8522 2.24294C20.3242 2.59365 20.6844 3.07368 20.8891 3.62493C21.0939 4.17612 21.1345 4.77492 21.006 5.34873C20.9286 5.85376 20.8759 6.36257 20.8033 6.86851C20.7929 6.94107 20.7473 7.05266 20.6947 7.06835C20.117 7.24036 19.5346 7.39682 18.9535 7.55755L18.9044 7.49914Z" fill="#B6DBA8"/>
<path d="M17.8678 7.9159C17.8527 7.91583 17.8376 7.91478 17.8225 7.91289L17.0291 7.7766C17.0028 7.77163 16.9773 7.76343 16.953 7.7523L16.2188 7.40863C16.1977 7.39834 16.1777 7.38601 16.1591 7.37172L15.7603 7.0623L15.5102 6.79963L15.178 6.39146C15.1616 6.37143 15.1476 6.34951 15.1365 6.32605L14.7945 5.574C14.7868 5.55551 14.7808 5.53639 14.7765 5.51685L14.6758 5.04684L14.6418 4.70044L14.6588 4.21621L14.7026 3.88683C14.7055 3.86708 14.7101 3.84754 14.7163 3.82856L14.9247 3.20643L15.0703 2.905L15.2607 2.60732L15.4877 2.3258L15.7438 2.06782L16.0218 1.84102L16.3123 1.65253L16.6078 1.5089L17.278 1.27909C17.2982 1.27292 17.3189 1.2686 17.3398 1.26621L18.096 1.20575C18.1181 1.20402 18.1404 1.20475 18.1623 1.20794L18.9556 1.34418C18.9818 1.34917 19.0074 1.35735 19.0316 1.36852L19.766 1.71269C19.787 1.72278 19.8071 1.73506 19.8256 1.74935L20.2245 2.05876C20.2387 2.06996 20.252 2.08222 20.2644 2.09542L20.4745 2.32113L20.8061 2.7293C20.8226 2.7494 20.8366 2.77145 20.8477 2.79496L21.1897 3.54646C21.1973 3.56488 21.2034 3.58393 21.2077 3.6034L21.309 4.07341L21.3428 4.4203L21.3313 4.90453L21.0683 7.01552C21.066 7.03807 21.0613 7.06034 21.0546 7.08198C21.0491 7.09431 21.0239 7.15503 21.0168 7.16652C21.0069 7.18256 20.996 7.19796 20.984 7.21246C20.9664 7.2334 20.9465 7.25238 20.9249 7.26912C20.8884 7.29181 20.8501 7.31156 20.8106 7.32823L19.1461 7.76869L18.362 7.89013L17.8854 7.91527L17.8678 7.9159ZM17.1966 7.12415L17.8816 7.2423L18.577 7.19005L19.0065 7.11126L20.422 6.73807L20.6617 4.85508L20.6721 4.4411L20.6453 4.17468L20.5572 3.77526L20.2595 3.12253L19.7911 2.5737L19.4409 2.30203L18.7882 1.99672L18.1049 1.87881L17.445 1.93133L16.8699 2.12722L16.6379 2.23911L16.4141 2.38548L16.1925 2.56713L15.9857 2.77614L15.8029 3.00291L15.6536 3.23655L15.5441 3.46444L15.3647 4.00862L15.328 4.27588L15.3127 4.68377L15.3395 4.94613L15.4276 5.34582L15.531 5.59921L15.7247 5.99807L16.2128 6.56767L16.5421 6.81826L17.1966 7.12415Z" fill="#5DA845"/>
</g>
<defs>
<clipPath id="clip0_2_231">
<rect width="48.3249" height="46.9242" fill="white"/>
</clipPath>
</defs>
</svg>
