<svg width="128" height="25" viewBox="0 0 128 25" fill="none" xmlns="http://www.w3.org/2000/svg">
<g clip-path="url(#clip0_2_494)">
<path d="M16.8982 10.3528C19.9818 7.83214 26.2791 -1.25105 16.4205 0.356975C12.1209 1.00888 5.82347 5.18106 4.56398 10.0052C3.91253 8.70132 3.17421 7.48446 2.39247 6.26757C1.17641 4.61608 -0.169928 5.91989 1.13298 7.57138C4.99527 12.2508 7.22209 18.0659 7.47382 24.1297C7.77784 21.2179 7.3001 17.6542 6.12747 14.1773C6.69207 14.3511 7.34353 14.4381 7.90813 14.4381C9.90589 17.7411 12.9895 20.566 16.4205 21.8698C19.5909 23.1301 23.8036 22.3914 22.0664 17.3065C21.1544 14.525 19.0263 12.0913 16.8982 10.3528ZM17.3325 1.53041C22.8048 0.921959 16.9416 7.74522 15.0307 9.00556C13.2501 7.83214 10.9917 6.78909 8.82016 7.09332C10.3836 5.05069 14.2055 1.92154 17.3325 1.53041ZM8.77671 8.57097C10.2533 8.44061 11.8603 9.26635 13.1198 10.1355C11.9037 10.7439 10.6008 11.0916 9.25444 11.2221C7.25666 11.2221 6.82236 8.74477 8.77671 8.57097ZM16.3336 19.1753C13.7712 18.4365 11.3392 16.3504 9.60189 14.2642C11.0351 13.9601 12.4683 13.395 13.7712 12.6128C14.249 12.3955 14.7267 12.0478 15.161 11.7436C16.6811 13.1343 18.288 15.0031 18.896 17.1326C19.5041 19.436 17.8537 19.6099 16.3336 19.1753Z" fill="#FFAF2C"/>
<path d="M37.8748 4.61601H30.4048C30.1443 4.61601 29.9271 4.83331 29.9271 5.09407H29.8837V16.8283C29.8837 17.0891 30.1008 17.3064 30.3614 17.3064C30.5786 17.3064 30.7957 17.0891 30.8391 16.8283V11.5262H37.18C37.4406 11.5262 37.5708 11.3089 37.5708 11.0916C37.5708 10.8308 37.3971 10.7005 37.18 10.7005H30.7957V5.52868H37.8748C38.1355 5.52868 38.2657 5.31137 38.2657 5.09407C38.2657 4.96369 38.1355 4.78985 37.8748 4.61601ZM41.3058 4.00757H41.2625C41.0453 4.00757 40.915 4.18141 40.915 4.39871V16.7849C40.915 17.0457 41.0887 17.2195 41.3058 17.2195C41.5665 17.2195 41.6967 17.0022 41.6967 16.7849V4.48563C41.6967 4.18141 41.5665 4.00757 41.3058 4.00757ZM52.12 8.44049C52.12 8.17978 51.9463 8.00591 51.7292 8.00591C51.4686 8.00591 51.3383 8.22323 51.3383 8.44049V13.6123C51.3383 15.3507 49.9919 16.7414 48.3416 16.698C46.6044 16.698 45.6055 15.4811 45.6055 13.5688V8.44049C45.6055 8.17978 45.4317 8.00591 45.2146 8.00591C45.0409 8.00591 44.8237 8.22323 44.8237 8.44049V13.6992C44.8237 15.8722 46.1266 17.4803 48.2547 17.4803C49.5576 17.5237 50.7737 16.7849 51.3817 15.568V16.9153C51.3817 17.176 51.5989 17.3064 51.7726 17.3064C52.0332 17.3064 52.1635 17.0891 52.1635 16.9153H52.12V8.44049ZM59.2861 8.87509C59.4598 8.87509 59.6769 8.70128 59.6769 8.48394C59.6769 8.31014 59.4598 8.09283 59.2861 8.09283H56.5499V5.52868C56.5499 5.31137 56.3328 5.09407 56.1591 5.09407H56.1156C55.8985 5.09407 55.7682 5.31137 55.7682 5.52868V8.09283H54.8127C54.5955 8.09283 54.4218 8.22323 54.4218 8.44049C54.4218 8.65783 54.5955 8.87509 54.8127 8.87509H55.7682V14.8726C55.7682 16.5676 56.854 17.3934 58.1134 17.3934C58.5477 17.3934 58.9821 17.3064 59.3729 17.176C59.5032 17.0891 59.6335 16.9588 59.6335 16.7849C59.6335 16.5676 59.4598 16.4372 59.2861 16.4372C58.9821 16.5242 58.6346 16.5676 58.2872 16.5676C57.2448 16.5676 56.5499 16.0895 56.5499 14.7857V8.87509H59.2861ZM66.0178 8.87509C66.2349 8.87509 66.4086 8.70128 66.4086 8.48394C66.4086 8.31014 66.2349 8.09283 66.0178 8.09283H63.2816V5.52868C63.2816 5.31137 63.1079 5.09407 62.8908 5.09407H62.8474C62.6302 5.09407 62.4999 5.31137 62.4999 5.52868V8.09283H61.5444C61.3707 8.09283 61.1535 8.22323 61.1535 8.44049C61.1535 8.65783 61.3707 8.87509 61.5444 8.87509H62.4999V14.8726C62.4999 16.5676 63.5856 17.3934 64.8885 17.3934C65.2794 17.3934 65.7137 17.3064 66.1046 17.176C66.2783 17.0891 66.3652 16.9588 66.3652 16.7849C66.3652 16.5676 66.2349 16.4372 66.0178 16.4372C65.7137 16.5242 65.3663 16.5676 65.0189 16.5676C63.9765 16.5676 63.2816 16.0895 63.2816 14.7857V8.87509H66.0178ZM71.9677 7.83207C69.6659 7.83207 67.9287 9.91816 67.9287 12.6562V12.6996C67.9287 15.6114 69.8396 17.5237 72.1414 17.5237C73.3575 17.5672 74.617 17.0457 75.4422 16.046C75.5724 15.9591 75.6159 15.8288 75.6159 15.7419C75.6159 15.5245 75.3987 15.3072 75.225 15.3072L74.9644 15.3942C74.6199 15.7961 74.1939 16.1202 73.7147 16.345C73.2355 16.5698 72.7141 16.6901 72.1849 16.698C70.4911 16.698 68.9711 15.3507 68.7973 13.0908H75.5724C75.7462 13.0908 75.9633 12.8734 75.9633 12.6562C75.9633 9.91816 74.3998 7.83207 71.9677 7.83207ZM68.7539 12.2216C68.8842 10.2224 70.2305 8.65783 71.9243 8.65783C73.8787 8.65783 74.921 10.3528 75.0079 12.2216H68.7539ZM82.6086 7.96245C81.0446 8.09283 79.7418 9.17933 79.1772 10.7439V8.48394C79.1772 8.31014 78.9601 8.09283 78.7863 8.09283C78.5257 8.09283 78.3954 8.22323 78.352 8.48394V17.0022C78.352 17.2195 78.5257 17.4368 78.7429 17.4368C78.9601 17.4368 79.1338 17.2629 79.1772 17.0022V13.6123C79.1772 10.6135 80.7842 9.17933 82.6086 8.96207H82.6517C82.9121 8.96207 83.0423 8.70128 83.0423 8.48394C83.0423 8.17978 82.8689 7.96245 82.6086 7.96245Z" fill="black"/>
<path d="M97.2447 7.48437C96.68 7.48437 96.1584 7.91897 96.0282 8.52744L94.5521 13.4819L93.1184 8.52744C92.9882 7.91897 92.4235 7.44091 91.7725 7.44091H91.6423C90.9905 7.44091 90.4258 7.83206 90.2956 8.52744L88.8627 13.395L87.4729 8.48399C87.2987 7.91897 86.8211 7.44091 86.2132 7.44091H86.1701C85.5183 7.44091 85.0407 8.00589 85.0407 8.70125L85.1278 9.35318L87.3427 16.1764C87.516 16.8718 88.0807 17.3499 88.7756 17.3933H88.8627C89.5136 17.3933 90.0352 16.9153 90.2525 16.2199L91.6854 11.3524L93.1184 16.2199C93.2925 16.9153 93.8572 17.3933 94.5082 17.3933H94.6384C95.3333 17.3933 95.898 16.9153 96.0721 16.1764L98.287 9.26628L98.4172 8.7447V8.70125C98.4172 8.00589 97.8957 7.48437 97.2447 7.48437ZM103.629 7.48437C102.63 7.44091 101.674 7.65822 100.719 7.96243C100.328 8.13628 100.111 8.52744 100.111 9.00549C100.111 9.65742 100.589 10.1355 101.197 10.092C101.284 10.092 101.414 10.092 101.544 10.005C102.109 9.83123 102.717 9.74432 103.325 9.74432C104.627 9.74432 105.279 10.3527 105.279 11.5262V11.6566C104.584 11.3958 103.802 11.3089 103.064 11.3089C100.936 11.3089 99.4596 12.3084 99.4596 14.4381C99.4596 16.3068 100.893 17.3933 102.543 17.3933C103.585 17.4368 104.584 16.9587 105.279 16.1764C105.322 16.8718 105.844 17.3499 106.495 17.3499C107.19 17.3499 107.755 16.7414 107.755 16.0025V11.6566C107.798 10.5701 107.451 9.44008 106.756 8.61434C106.017 7.91897 105.019 7.48437 103.629 7.48437ZM105.322 13.7861C105.322 14.8292 104.454 15.4811 103.282 15.4376C102.456 15.4376 101.892 15.003 101.892 14.2642V14.2207C101.892 13.395 102.587 12.8735 103.672 12.8735C104.194 12.8735 104.802 13.0473 105.322 13.2646V13.7861ZM116.571 7.44091C116.05 7.44091 115.529 7.7886 115.398 8.39701L113.401 14.0034L111.489 8.44054C111.316 7.83206 110.838 7.44091 110.23 7.44091C109.579 7.44091 109.057 7.96243 108.971 8.70125C108.971 8.91858 109.057 9.13584 109.144 9.35318L111.924 16.1764C112.098 16.8718 112.662 17.3499 113.357 17.3933H113.531C114.139 17.3499 114.747 16.9153 115.008 16.2199L117.7 9.39663L117.831 8.7447V8.70125C117.831 8.00589 117.309 7.44091 116.571 7.44091ZM123.303 7.39745C120.653 7.39745 118.829 9.65742 118.829 12.3953V12.83C118.916 15.481 121.088 17.5237 123.563 17.3933C124.693 17.3933 125.778 17.0022 126.69 16.2199C126.951 16.0025 127.038 15.7418 127.038 15.4376V15.3941C127.038 14.7857 126.603 14.3076 126.039 14.3076C125.822 14.3076 125.605 14.3511 125.431 14.525C124.924 14.9611 124.275 15.1935 123.607 15.1768C122.521 15.2203 121.566 14.4381 121.435 13.2646H126.517C127.168 13.2212 127.69 12.6127 127.646 11.9173V11.7C127.646 9.35318 125.691 7.31053 123.303 7.39745ZM121.348 11.6566C121.566 10.3962 122.26 9.61389 123.303 9.61389C124.345 9.61389 125.04 10.4397 125.17 11.6566H121.348Z" fill="black"/>
</g>
<defs>
<clipPath id="clip0_2_494">
<rect width="127" height="23.9623" fill="white" transform="translate(0.600067 0.16748)"/>
</clipPath>
</defs>
</svg>
