<svg width="116" height="64" viewBox="0 0 116 64" fill="none" xmlns="http://www.w3.org/2000/svg">
<rect width="116" height="64" rx="32" fill="white"/>
<path d="M21.0002 30.991H28.2634V33.7066H21.0002V30.991ZM21.2588 37.1982H29.4704V40H17.7889V24.9132H29.1902V27.715H21.2588V37.1982ZM39.0591 28.2323C39.9787 28.2323 40.7977 28.4191 41.5161 28.7926C42.2489 29.1518 42.8237 29.7122 43.2403 30.4737C43.657 31.2209 43.8654 32.1836 43.8654 33.3618V40H40.5032V33.8791C40.5032 32.9451 40.2948 32.2554 39.8781 31.81C39.4758 31.3646 38.9011 31.1419 38.1539 31.1419C37.6223 31.1419 37.1409 31.2568 36.7099 31.4867C36.2932 31.7022 35.9627 32.0399 35.7185 32.4997C35.4886 32.9595 35.3736 33.5486 35.3736 34.267V40H32.0114V28.4047H35.2228V31.616L34.6193 30.6462C35.036 29.8703 35.6323 29.274 36.4082 28.8573C37.1841 28.4406 38.0677 28.2323 39.0591 28.2323ZM49.8493 40L44.9784 28.4047H48.4483L52.5002 38.3836H50.776L54.9788 28.4047H58.2117L53.3192 40H49.8493ZM65.0225 40.1724C63.7006 40.1724 62.5367 39.9138 61.5309 39.3965C60.5395 38.8793 59.7708 38.1752 59.2248 37.2844C58.6788 36.3792 58.4058 35.3518 58.4058 34.2023C58.4058 33.0385 58.6716 32.0112 59.2033 31.1203C59.7493 30.2151 60.4892 29.5111 61.4232 29.0082C62.3571 28.4909 63.4132 28.2323 64.5914 28.2323C65.7265 28.2323 66.7467 28.4765 67.6519 28.9651C68.5715 29.4392 69.2971 30.1289 69.8287 31.0341C70.3603 31.9249 70.6262 32.9954 70.6262 34.2454C70.6262 34.3748 70.619 34.5256 70.6046 34.6981C70.5902 34.8561 70.5759 35.007 70.5615 35.1507H61.143V33.1894H68.7942L67.501 33.7713C67.501 33.1678 67.3789 32.6434 67.1346 32.1979C66.8904 31.7525 66.5527 31.4077 66.1217 31.1634C65.6906 30.9048 65.1877 30.7755 64.613 30.7755C64.0382 30.7755 63.5282 30.9048 63.0827 31.1634C62.6517 31.4077 62.314 31.7597 62.0698 32.2195C61.8255 32.6649 61.7034 33.1966 61.7034 33.8144V34.3317C61.7034 34.9639 61.8399 35.5242 62.1129 36.0128C62.4002 36.4869 62.7954 36.8533 63.2983 37.1119C63.8155 37.3562 64.419 37.4783 65.1087 37.4783C65.7265 37.4783 66.2653 37.3849 66.7251 37.1982C67.1993 37.0114 67.6303 36.7312 68.0183 36.3576L69.8072 38.2973C69.2755 38.9008 68.6074 39.3678 67.8028 39.6983C66.9981 40.0144 66.0714 40.1724 65.0225 40.1724ZM76.7656 40.1724C75.7742 40.1724 74.8187 40.0575 73.8991 39.8276C72.9939 39.5833 72.2755 39.2816 71.7439 38.9224L72.8646 36.5085C73.3962 36.8389 74.0213 37.1119 74.7397 37.3275C75.4725 37.5286 76.1909 37.6292 76.8949 37.6292C77.6708 37.6292 78.2168 37.5358 78.5329 37.349C78.8634 37.1622 79.0287 36.9036 79.0287 36.5731C79.0287 36.3001 78.8993 36.099 78.6407 35.9697C78.3964 35.826 78.066 35.7182 77.6493 35.6464C77.2326 35.5745 76.7728 35.5027 76.2699 35.4308C75.7814 35.359 75.2857 35.2656 74.7828 35.1507C74.2799 35.0213 73.8201 34.8346 73.4034 34.5903C72.9867 34.346 72.6491 34.0156 72.3904 33.5989C72.1462 33.1822 72.024 32.6434 72.024 31.9824C72.024 31.2496 72.2324 30.6031 72.6491 30.0427C73.0801 29.4823 73.698 29.0441 74.5026 28.728C75.3072 28.3975 76.2699 28.2323 77.3907 28.2323C78.1809 28.2323 78.9856 28.3185 79.8046 28.4909C80.6236 28.6633 81.3061 28.9148 81.8521 29.2452L80.7313 31.6376C80.1709 31.3071 79.6034 31.0844 79.0287 30.9694C78.4683 30.8401 77.9223 30.7755 77.3907 30.7755C76.6435 30.7755 76.0975 30.8761 75.7527 31.0772C75.4078 31.2784 75.2354 31.537 75.2354 31.8531C75.2354 32.1405 75.3575 32.356 75.6018 32.4997C75.8604 32.6434 76.1981 32.7583 76.6148 32.8445C77.0314 32.9307 77.4841 33.0098 77.9726 33.0816C78.4755 33.1391 78.9784 33.2325 79.4813 33.3618C79.9842 33.4911 80.4368 33.6779 80.8391 33.9222C81.2558 34.1521 81.5934 34.4753 81.8521 34.892C82.1107 35.2943 82.24 35.826 82.24 36.4869C82.24 37.2053 82.0245 37.8447 81.5934 38.4051C81.1624 38.9511 80.5373 39.3822 79.7183 39.6983C78.9137 40.0144 77.9295 40.1724 76.7656 40.1724ZM89.056 40.1724C87.691 40.1724 86.6278 39.8276 85.8662 39.1379C85.1047 38.4338 84.7239 37.3921 84.7239 36.0128V25.8399H88.0862V35.9697C88.0862 36.4582 88.2155 36.8389 88.4741 37.1119C88.7327 37.3706 89.0848 37.4999 89.5302 37.4999C90.0618 37.4999 90.5144 37.3562 90.888 37.0688L91.7932 39.4396C91.4484 39.6839 91.0317 39.8707 90.5432 40C90.069 40.1149 89.5733 40.1724 89.056 40.1724ZM82.9351 31.2496V28.6633H90.9742V31.2496H82.9351Z" fill="#3D06BA"/>
<path d="M95.9867 36.7024C95.4982 36.7024 95.0456 36.5875 94.6289 36.3576C94.2266 36.1133 93.9033 35.7901 93.659 35.3877C93.4148 34.9711 93.2926 34.4969 93.2926 33.9653C93.2926 33.4336 93.4148 32.9667 93.659 32.5643C93.9033 32.162 94.2266 31.8459 94.6289 31.616C95.0456 31.3718 95.4982 31.2496 95.9867 31.2496C96.4752 31.2496 96.9207 31.3718 97.323 31.616C97.7397 31.8459 98.0701 32.162 98.3144 32.5643C98.5587 32.9667 98.6808 33.4336 98.6808 33.9653C98.6808 34.4969 98.5587 34.9711 98.3144 35.3877C98.0701 35.7901 97.7397 36.1133 97.323 36.3576C96.9207 36.5875 96.4752 36.7024 95.9867 36.7024Z" fill="#A191D6"/>
</svg>
