<svg width="13" height="13" viewBox="0 0 13 13" fill="none" xmlns="http://www.w3.org/2000/svg">
<path d="M12.1658 3.25008C11.7488 3.43966 11.2992 3.56425 10.8333 3.62383C11.31 3.33675 11.6783 2.88175 11.8517 2.33466C11.4021 2.6055 10.9038 2.79508 10.3783 2.90341C9.95042 2.43758 9.34917 2.16675 8.66667 2.16675C7.39375 2.16675 6.35375 3.20675 6.35375 4.4905C6.35375 4.67466 6.37542 4.85341 6.41333 5.02133C4.485 4.92383 2.76792 3.99758 1.625 2.59466C1.42458 2.93591 1.31083 3.33675 1.31083 3.75925C1.31083 4.56633 1.71708 5.28133 2.34542 5.68758C1.96083 5.68758 1.60333 5.57925 1.28917 5.41675V5.433C1.28917 6.55966 2.09083 7.50216 3.1525 7.71341C2.81164 7.80669 2.4538 7.81967 2.10708 7.75133C2.2542 8.21309 2.54233 8.61713 2.93097 8.90667C3.3196 9.1962 3.7892 9.35666 4.27375 9.3655C3.45238 10.0157 2.43425 10.3672 1.38667 10.3622C1.2025 10.3622 1.01833 10.3513 0.834167 10.3297C1.86333 10.9905 3.0875 11.3751 4.39833 11.3751C8.66667 11.3751 11.0121 7.83258 11.0121 4.76133C11.0121 4.65841 11.0121 4.56091 11.0067 4.458C11.4617 4.133 11.8517 3.72133 12.1658 3.25008Z" fill="#B5B5B5"/>
</svg>
