<svg width="15" height="14" viewBox="0 0 15 14" fill="none" xmlns="http://www.w3.org/2000/svg">
<path d="M7.5 12.8333C6.69306 12.8333 5.93473 12.6801 5.22501 12.3736C4.51528 12.0672 3.89792 11.6517 3.37292 11.127C2.84792 10.602 2.43239 9.98468 2.12634 9.27496C1.82028 8.56524 1.66706 7.8069 1.66667 6.99996C1.66667 6.19301 1.81989 5.43468 2.12634 4.72496C2.43278 4.01524 2.84831 3.39788 3.37292 2.87288C3.89792 2.34788 4.51528 1.93235 5.22501 1.62629C5.93473 1.32024 6.69306 1.16701 7.5 1.16663C8.30695 1.16663 9.06528 1.31985 9.775 1.62629C10.4847 1.93274 11.1021 2.34826 11.6271 2.87288C12.1521 3.39788 12.5678 4.01524 12.8743 4.72496C13.1807 5.43468 13.3337 6.19301 13.3333 6.99996C13.3333 7.8069 13.1801 8.56524 12.8737 9.27496C12.5672 9.98468 12.1517 10.602 11.6271 11.127C11.1021 11.652 10.4847 12.0678 9.775 12.3742C9.06528 12.6807 8.30695 12.8337 7.5 12.8333ZM7.5 11.6666C8.80278 11.6666 9.90625 11.2145 10.8104 10.3104C11.7146 9.40621 12.1667 8.30274 12.1667 6.99996C12.1667 6.37774 12.05 5.77982 11.8167 5.20621C11.5833 4.6326 11.2479 4.12704 10.8104 3.68954L7.5 6.99996V2.33329C6.19723 2.33329 5.09375 2.78538 4.18959 3.68954C3.28542 4.59371 2.83334 5.69718 2.83334 6.99996C2.83334 8.30274 3.28542 9.40621 4.18959 10.3104C5.09375 11.2145 6.19723 11.6666 7.5 11.6666Z" fill="white"/>
</svg>
