<svg width="55" height="47" viewBox="0 0 55 47" fill="none" xmlns="http://www.w3.org/2000/svg">
<g clip-path="url(#clip0_2_221)">
<mask id="mask0_2_221" style="mask-type:luminance" maskUnits="userSpaceOnUse" x="0" y="0" width="55" height="47">
<path d="M54.6282 0H0V46.2238H54.6282V0Z" fill="white"/>
</mask>
<g mask="url(#mask0_2_221)">
<path d="M4.20746 0.466431L3.15019 3.40684L0.531403 4.88712L3.34181 5.60765L4.60414 8.47687L5.76114 5.33815L8.27572 3.99626L5.51013 3.14462L4.20746 0.466431Z" fill="white"/>
<path d="M6.15905 4.53492C6.01993 4.46706 5.93249 4.41523 5.83876 4.38021C5.29823 4.1783 5.33338 4.17683 5.28703 3.59966C5.24581 3.08623 5.1124 2.58029 5.02237 2.07052C4.94318 1.68238 4.89961 1.2878 4.89222 0.891724C5.08027 1.3903 5.23462 1.90093 5.35421 2.42018C5.35978 2.56005 5.39339 2.69739 5.45306 2.82401C5.51272 2.95064 5.59723 3.06403 5.70155 3.15738C5.80587 3.25074 5.92789 3.32218 6.06035 3.36742C6.19282 3.41267 6.33303 3.43088 6.47268 3.42093C7.00187 3.48053 7.52446 3.58874 8.03383 3.74401C8.22139 3.81916 8.39998 3.91504 8.56618 4.02996C8.38163 4.14468 8.26481 4.23314 8.13532 4.29519C7.472 4.61301 6.80948 4.93287 6.13845 5.23375C5.98488 5.29664 5.84841 5.39511 5.74024 5.52096C5.63207 5.64682 5.55526 5.79655 5.51613 5.95785C5.30806 6.71704 5.06103 7.46493 4.77599 8.1987C4.83654 7.90091 4.87853 7.59786 4.9614 7.30644C5.19119 6.64966 5.35036 5.97024 5.43623 5.27976C5.44661 5.12435 5.67319 4.97881 5.80982 4.83804C5.90596 4.73901 6.01839 4.65574 6.15905 4.53492Z" fill="#F5A2C5"/>
<path d="M4.5914 8.81295C4.4237 8.81295 4.34929 8.71882 4.05957 8.35225C4.04027 8.32732 4.02435 8.29987 4.01224 8.27073C3.98406 8.20125 3.37071 6.69385 3.08891 5.90265C2.57404 5.80306 1.3268 5.54042 0.732854 5.41513C0.689472 5.40616 0.648277 5.38879 0.611641 5.36386C0.574998 5.339 0.54365 5.30713 0.519375 5.27008C0.495108 5.23303 0.478397 5.1915 0.47021 5.14801C0.46203 5.10445 0.462527 5.05976 0.471681 5.01641C0.480841 4.97306 0.498469 4.93195 0.523563 4.89546C0.548657 4.85897 0.580713 4.8278 0.617902 4.80371C0.655084 4.77969 0.696658 4.76316 0.740236 4.75525C0.783806 4.74726 0.828524 4.74803 0.871806 4.75742C1.77024 4.94729 3.24592 5.25481 3.38025 5.27337C3.44345 5.28171 3.50313 5.30734 3.5527 5.3474C3.60228 5.38746 3.63983 5.44041 3.66122 5.50043C3.84205 6.04321 4.34024 7.28749 4.54514 7.79526C4.62914 7.53318 4.71614 7.21199 4.78425 6.96026C5.05811 5.94747 5.2466 5.31498 5.55329 5.0737C5.95007 4.84559 6.36216 4.64522 6.78658 4.47398C7.29512 4.27914 7.78062 4.02869 8.2341 3.72712C8.26947 3.70071 8.30967 3.68145 8.35246 3.6706C8.39525 3.65967 8.43972 3.65729 8.48343 3.66359C8.52713 3.6699 8.56915 3.68475 8.60711 3.7073C8.64507 3.72985 8.6782 3.75961 8.70467 3.79498C8.73108 3.83035 8.75033 3.87055 8.76119 3.91334C8.77212 3.95613 8.7745 4.00061 8.76819 4.04431C8.76189 4.08801 8.74704 4.13003 8.72449 4.16799C8.70194 4.20595 8.67217 4.23908 8.63681 4.26555C8.14186 4.60033 7.61022 4.87732 7.05224 5.09121C6.66829 5.24571 6.29464 5.42465 5.93356 5.62685C5.71273 6.11031 5.54496 6.61632 5.43319 7.13594C5.33776 7.68831 5.14183 8.21855 4.85512 8.70026C4.79635 8.76631 4.71383 8.80644 4.62558 8.8119C4.61383 8.81295 4.60235 8.81295 4.5914 8.81295Z" fill="#ED1E71"/>
<path d="M0.802305 5.4226C0.73049 5.42274 0.660553 5.39969 0.602843 5.35697L0.557432 5.32413C0.451537 5.24695 0.250205 5.09651 0.213268 5.05932C0.181989 5.02773 0.15726 4.99033 0.140493 4.94922C0.123733 4.90811 0.115273 4.86406 0.115602 4.81966C0.115868 4.75606 0.131451 4.69345 0.161021 4.63721C0.190597 4.5809 0.233291 4.53258 0.285496 4.4963C0.972654 4.09863 1.6812 3.73914 2.40792 3.41949C3.0169 3.1481 3.0169 3.1481 3.23002 2.40502C3.35969 1.95309 3.55585 1.27024 3.94625 0.202733C3.9656 0.149778 3.99798 0.102552 4.04037 0.0653915C4.08983 0.0215559 4.14911 -0.00972922 4.2132 -0.0258165C4.27729 -0.0419108 4.34432 -0.042331 4.40861 -0.0270562C4.50464 0.00741562 4.6242 0.0500954 5.01732 0.764138C5.28051 1.46338 5.66133 2.48164 5.81097 2.87013C5.9423 2.89534 6.11739 2.9221 6.29904 2.95004C7.52272 3.13935 8.47942 3.32537 8.73715 3.8479C8.77532 3.92613 8.78099 4.0162 8.75305 4.09863C8.72503 4.181 8.66564 4.249 8.58776 4.2878C8.50848 4.32723 8.41702 4.33444 8.33248 4.3079C8.24795 4.28143 8.177 4.22323 8.13442 4.14556C7.99379 3.89224 6.68806 3.69032 6.19644 3.61482C5.95306 3.58296 5.71145 3.53876 5.47255 3.48239C5.42528 3.46915 5.38149 3.44569 5.34429 3.41361C5.30708 3.38153 5.27737 3.34175 5.25724 3.29693C5.19049 3.1481 4.538 1.3934 4.40778 1.04322C4.39848 1.0268 4.38863 1.00984 4.37851 0.992876C4.12436 1.72607 3.97908 2.23217 3.87649 2.59055C3.5936 3.57602 3.52658 3.65699 2.68149 4.03343C2.32693 4.19157 1.81753 4.41863 1.03728 4.84599C1.08515 4.89263 1.11801 4.95251 1.13166 5.018C1.1453 5.08341 1.13911 5.15149 1.11388 5.2134C1.08865 5.27531 1.04552 5.32833 0.990016 5.36559C0.934512 5.40285 0.869168 5.42267 0.802305 5.4226Z" fill="#ED1E71"/>
<path d="M50.3931 1.65283C50.6182 2.38869 50.83 3.0597 51.0256 3.73541C51.0393 3.81329 51.0786 3.88431 51.1374 3.93726C51.1961 3.9902 51.2709 4.02193 51.3498 4.02746C51.9858 4.13322 52.6223 4.24163 53.2512 4.38213C53.4937 4.45959 53.7282 4.55995 53.9516 4.68195L53.9466 4.77713C53.8216 4.85263 53.7019 4.93891 53.5709 5.00187C52.8901 5.32922 52.2083 5.65461 51.5228 5.97216C51.4026 6.02461 51.296 6.10375 51.211 6.20355C51.126 6.30336 51.0648 6.42116 51.032 6.54813C50.8076 7.30947 50.5742 8.06937 50.3315 8.82765C50.3745 8.04128 49.9493 7.36767 49.8245 6.62853C49.8033 6.44182 49.7195 6.26778 49.5868 6.13471C49.4541 6.00157 49.2803 5.91732 49.0936 5.89561C48.8984 5.8332 48.707 5.75939 48.5205 5.67443C48.8549 5.40409 49.1649 5.16303 49.4627 4.90768C49.5864 4.81887 49.6856 4.70023 49.7511 4.56282C49.9587 3.94209 50.1622 3.318 50.3191 2.68326C50.3729 2.34253 50.3977 1.99779 50.3931 1.65283Z" fill="#F5A2C5"/>
<path d="M49.7853 1.65283C49.7853 1.65283 49.5598 4.19268 47.7294 4.59805C45.8991 5.00335 46.4611 5.64628 46.4611 5.64628C46.4611 5.64628 48.1882 5.71939 48.6409 6.31029C49.157 7.24371 49.5953 8.21798 49.9513 9.22335C49.9513 9.22335 50.5121 6.5758 51.1739 6.07567C51.9211 5.58794 52.6997 5.15007 53.5046 4.76494C52.5175 4.65155 51.6148 4.15367 50.9923 3.37914C50.5335 2.84532 50.1292 2.26703 49.7853 1.65283Z" fill="white"/>
<path d="M50.1013 9.44843C50.0274 9.44556 49.955 9.42672 49.889 9.39317C49.8243 9.36453 49.7703 9.31606 49.7348 9.25478C49.7041 9.20113 48.9058 7.3879 48.606 6.57425C47.9236 6.40575 45.9709 5.8706 45.868 5.81807C45.8125 5.79013 45.7658 5.74727 45.7332 5.69432C45.7007 5.64137 45.6835 5.58044 45.6836 5.51825V5.48491C45.6835 5.42552 45.6991 5.36725 45.729 5.31591C45.7587 5.26458 45.8016 5.22207 45.8532 5.19272C46.5268 4.80416 47.2207 4.45181 47.9319 4.13728C48.5392 3.86533 48.5392 3.86533 48.7466 3.13926C48.8741 2.69495 49.0661 2.02359 49.4508 0.973045C49.4708 0.918529 49.5045 0.870092 49.5487 0.832413C49.6067 0.781693 49.6783 0.749231 49.7546 0.739111C49.8309 0.728983 49.9086 0.741646 49.9777 0.775501L50.0346 0.811073C50.0641 0.829639 50.0905 0.852716 50.1129 0.879463C50.4744 1.60367 50.7976 2.34645 51.0808 3.10473C51.1656 3.30392 51.2384 3.47515 51.2882 3.59226C52.243 3.7936 53.1822 4.06255 54.0989 4.39711C54.1379 4.42982 54.169 4.47093 54.1898 4.51736C54.2105 4.56379 54.2204 4.61436 54.2187 4.66521C54.216 4.75128 54.1881 4.83463 54.1383 4.90487C53.6414 5.28314 53.0882 5.58114 52.499 5.78803C52.1189 5.94624 51.7491 6.12784 51.3915 6.33193C51.2043 6.78254 51.0545 7.2479 50.9439 7.7233C50.8401 8.28954 50.6412 8.83414 50.3558 9.33413C50.2968 9.40095 50.2138 9.44164 50.1249 9.44738C50.1167 9.44794 50.109 9.44843 50.1013 9.44843ZM46.8545 5.40829C47.6348 5.62547 48.7756 5.93517 48.9064 5.95709C48.9681 5.96739 49.026 5.99386 49.0742 6.03371C49.1224 6.07357 49.1593 6.12546 49.181 6.18415C49.3276 6.62517 49.7741 7.67182 50.0663 8.34319C50.1468 8.08497 50.2299 7.78402 50.2962 7.54436C50.4016 6.94425 50.616 6.36849 50.9287 5.84546C51.3334 5.57491 51.7671 5.3503 52.2216 5.17577C52.4788 5.05923 52.8289 4.90109 53.1178 4.75878C52.424 4.56128 51.3494 4.28169 50.9839 4.21278C50.9301 4.20241 50.8795 4.17909 50.8366 4.14491C50.7937 4.11066 50.7597 4.06654 50.7377 4.01632C50.7158 3.96485 50.6064 3.70719 50.4619 3.36737C50.2901 2.96249 50.0335 2.35787 49.8371 1.89663C49.6171 2.54171 49.4869 2.99583 49.3933 3.32416C49.1159 4.29374 49.0492 4.37358 48.2071 4.75114C47.8996 4.88848 47.4739 5.07891 46.8545 5.40829Z" fill="#ED1E71"/>
<path d="M7.10425 18.0735C7.10425 18.0735 5.96177 39.5981 7.16658 40.9571C8.37134 42.3161 42.847 35.9503 42.847 35.9503L43.3505 12.4167L7.10425 18.0735Z" fill="white"/>
<path d="M7.87 11.8455C7.87 11.8455 6.82034 12.7518 7.16683 16.3405L43.3506 10.5696L42.9416 6.53162L7.87 11.8455Z" fill="white"/>
<path d="M5.30307 9.91328C5.30307 9.91328 4.15152 10.641 4.50914 14.3908L40.4852 8.82794L40.4812 5.1191C40.4811 5.00487 40.4562 4.89204 40.4081 4.78839C40.3601 4.68473 40.2902 4.59278 40.2031 4.51882C40.1161 4.44486 40.014 4.39072 39.904 4.36005C39.794 4.32944 39.6786 4.32307 39.5658 4.34142L5.30307 9.91328Z" fill="white"/>
<path d="M4.50877 16.2386V38.1105C4.50877 38.1105 4.46043 39.0564 5.73631 39.5063L41.6309 34.3771L40.4804 11.027L4.50877 16.2386Z" fill="white"/>
<path d="M42.9011 12.3591C40.6151 12.7233 38.3291 13.0931 36.0431 13.4517C31.3535 14.1969 26.6676 14.9421 21.9855 15.6873C17.3911 16.4156 12.7968 17.1477 8.20238 17.8836C7.83259 17.9452 7.46841 18.0125 7.10422 18.0741C7.10422 18.1189 7.10982 18.1581 7.10982 18.1974C7.2777 18.2086 7.4462 18.2086 7.61408 18.1974C9.72077 17.8668 11.8256 17.5325 13.9285 17.1944C16.433 16.7966 18.9338 16.3988 21.4308 16.001C22.6915 15.7993 23.9484 15.5995 25.2015 15.4015C25.364 15.3735 25.5153 15.3231 25.5321 15.592C25.5937 16.5221 25.717 17.4522 25.7226 18.3823C25.7338 19.4188 25.6722 20.4609 25.5937 21.4919C25.5153 22.5228 25.392 23.5537 25.252 24.5734C24.9916 26.4176 24.566 28.2347 23.9801 30.0026C23.5375 31.3305 23.0612 32.6528 22.4953 33.9303C21.8622 35.359 21.117 36.7373 20.4055 38.1324C20.1589 38.6143 19.8676 39.0793 19.565 39.606C19.7499 39.5892 19.8508 39.5836 19.9516 39.5668C22.1144 39.225 24.2752 38.8813 26.4342 38.5358C31.5496 37.7178 36.6651 36.898 41.7805 36.0762C42.25 36.039 42.6856 35.8168 42.9913 35.4585C43.2971 35.1002 43.448 34.6352 43.4109 34.1656C43.4165 27.0499 43.4165 19.9324 43.4109 12.813C43.4109 12.3984 43.3101 12.2975 42.9011 12.3591ZM34.5864 28.5123C34.4839 28.9111 34.349 29.3008 34.183 29.6777C34.1337 29.7754 34.0498 29.8513 33.9477 29.8906C33.6339 30.0419 33.3089 30.1651 32.8943 30.3388C33.2809 30.4397 33.5723 30.5069 33.8636 30.5909C33.9533 30.6134 34.0933 30.6638 34.1045 30.7254C34.1998 31.2353 34.2782 31.7563 34.3511 32.2718C34.3567 32.3054 34.3118 32.3503 34.2446 32.4847C34.1322 32.3369 34.0364 32.1772 33.9589 32.0085C33.8427 31.7108 33.7618 31.4005 33.7179 31.084C33.6787 30.7646 33.505 30.6694 33.2361 30.619C32.9333 30.5634 32.6341 30.4904 32.3396 30.4004C32.1982 30.3289 32.0649 30.2425 31.9418 30.1427C32.4685 29.9242 32.9167 29.7561 33.3425 29.5432C33.5233 29.4448 33.6684 29.2918 33.7572 29.1062C33.9645 28.6411 34.1213 28.1537 34.3006 27.6606C34.7489 27.8623 34.6536 28.2209 34.5864 28.5123Z" fill="#F5A2C5"/>
<path d="M33.9483 29.8907C33.6345 30.042 33.3095 30.1653 32.8949 30.3389C33.2815 30.4398 33.5729 30.507 33.8642 30.5911C33.9539 30.6135 34.0939 30.6639 34.1051 30.7255C34.2004 31.2354 34.2788 31.7565 34.3517 32.2719C34.3573 32.3056 34.3125 32.3504 34.2452 32.4849C34.1328 32.3371 34.037 32.1773 33.9595 32.0086C33.8433 31.711 33.7625 31.4006 33.7185 31.0841C33.6793 30.7648 33.5056 30.6695 33.2367 30.6191C32.9339 30.5635 32.6347 30.4905 32.3402 30.4006C32.1988 30.3291 32.0655 30.2426 31.9424 30.1428C32.4691 29.9243 32.9173 29.7562 33.3432 29.5433C33.5239 29.4449 33.669 29.292 33.7578 29.1063C33.9651 28.6413 34.122 28.1538 34.3012 27.6608C34.7495 27.8625 34.6542 28.2211 34.587 28.5124C34.4845 28.9113 34.3496 29.301 34.1836 29.6778C34.1343 29.7755 34.0504 29.8514 33.9483 29.8907Z" fill="#F5A2C5"/>
<path d="M43.4106 10.6417L25.279 13.5345C25.1322 12.8561 25.0023 12.1817 24.8377 11.5159C24.6671 10.8257 24.4643 10.1435 24.2721 9.45871C24.2193 9.27073 24.097 9.23193 23.9037 9.26366C22.5134 9.49212 21.121 9.70804 19.7295 9.92928C16.9124 10.3773 14.0938 10.8164 11.2792 11.2798C10.2532 11.4487 9.23742 11.6793 8.21532 11.8731C8.09948 11.8792 7.98322 11.8698 7.86983 11.8453L7.85379 11.7301C8.13295 11.626 8.41884 11.5406 8.70949 11.4747C13.1313 10.7598 17.5541 10.0508 21.9777 9.3477C27.227 8.51147 32.4767 7.67741 37.7266 6.84542C38.9484 6.65107 40.1675 6.43991 41.3909 6.2567C41.9239 6.14422 42.4796 6.24262 42.9415 6.53138C43.0762 6.60891 43.1891 6.71921 43.2699 6.852C43.3505 6.98479 43.3965 7.13589 43.4033 7.29116C43.4221 8.39164 43.4106 9.49261 43.4106 10.6417Z" fill="#F5A2C5"/>
<path d="M8.57542 41.6781C8.56036 41.678 8.54531 41.6771 8.53032 41.6753L7.82611 41.5916C7.75222 41.5829 7.68246 41.5527 7.62559 41.5046C7.44336 41.3514 7.01362 40.9925 6.83165 40.8491C6.77688 40.806 6.73493 40.7486 6.71042 40.6833C6.541 40.1894 6.46963 39.6671 6.50031 39.1458L6.4973 17.9774C6.49737 17.8866 6.52979 17.7987 6.58869 17.7296C6.64766 17.6605 6.72933 17.6147 6.81904 17.6004L43.0034 11.8296C43.0533 11.8215 43.1043 11.8235 43.1534 11.8353C43.2025 11.8472 43.2488 11.8686 43.2896 11.8985L43.5768 12.1092C43.6427 12.1576 43.6913 12.2258 43.7155 12.3039C43.7398 12.382 43.7383 12.4658 43.7114 12.543C43.6573 12.8992 43.6923 15.3598 43.7295 17.9621C43.9199 31.2952 43.7431 35.5067 42.9733 35.9865C42.8899 36.0413 42.7912 36.0684 42.6915 36.0637L42.0957 36.3241C42.066 36.3372 42.0347 36.3464 42.0027 36.3515L8.63565 41.6731C8.61576 41.6764 8.59559 41.6781 8.57542 41.6781ZM8.02942 40.8469L8.56779 40.9104L41.8341 35.6052C42.344 35.3819 42.5 35.3141 42.5739 35.2938C43.1938 33.961 43.0406 23.2049 42.9656 17.973C42.9153 14.4455 42.9049 13.1455 42.9415 12.6125L7.26119 18.3029V39.1935C7.24158 39.5741 7.28655 39.9554 7.39412 40.3211C7.57363 40.4661 7.85076 40.697 8.02942 40.8469Z" fill="#ED1E71"/>
<path d="M4.50887 14.7726C4.40758 14.7726 4.31044 14.7323 4.23882 14.6607C4.1672 14.5891 4.12696 14.492 4.12695 14.3907V10.942C4.12694 10.9218 4.12859 10.9016 4.13188 10.8817C4.27317 10.3403 4.6212 9.87588 5.10118 9.58824C5.1265 9.57277 5.15348 9.56009 5.18161 9.55049L5.97554 9.28464C5.99544 9.27805 6.01584 9.27308 6.03654 9.26986L39.0449 4.00508C39.0685 4.00123 39.0926 3.99954 39.1165 4.00011L39.2785 4.00123C39.7468 4.00123 40.4839 3.99849 40.7985 4.4718C40.8402 4.53455 40.8624 4.60823 40.8625 4.68359V6.53625C40.8625 6.63752 40.8223 6.73466 40.7507 6.80631C40.679 6.87789 40.5819 6.91816 40.4806 6.91816C40.3793 6.91816 40.2822 6.87789 40.2105 6.80631C40.1389 6.73466 40.0987 6.63752 40.0987 6.53625V4.84824C39.8354 4.76028 39.5558 4.73184 39.2801 4.76511C39.2254 4.76567 39.1746 4.76567 39.1313 4.76455L6.18809 10.0189L5.46941 10.2596C5.20428 10.4304 5.00134 10.6821 4.89078 10.9775V13.9431L6.97709 13.6104C7.0266 13.6026 7.07717 13.6045 7.12591 13.6161C7.17473 13.6278 7.22067 13.6489 7.26129 13.6783C7.30191 13.7077 7.3363 13.7448 7.36256 13.7875C7.38876 13.8303 7.40634 13.8777 7.41425 13.9273C7.42217 13.9768 7.42027 14.0273 7.40858 14.0761C7.39695 14.1248 7.3758 14.1708 7.34639 14.2115C7.31697 14.252 7.27985 14.2865 7.23713 14.3127C7.19441 14.3389 7.14699 14.3565 7.09748 14.3644L4.56906 14.7677C4.54916 14.7709 4.52903 14.7726 4.50887 14.7726Z" fill="#ED1E71"/>
<path d="M7.16666 16.7223C7.06539 16.7223 6.96825 16.6821 6.8966 16.6105C6.82502 16.5388 6.78475 16.4417 6.78475 16.3404V14.6158C6.78475 13.6583 6.78475 13.1357 6.82082 12.8512L6.78776 12.8474C6.92517 12.3001 7.27402 11.8296 7.75783 11.5391C7.7834 11.5234 7.81064 11.5105 7.83908 11.5008L8.633 11.2343C8.65303 11.2278 8.67349 11.2228 8.69429 11.2195L41.7026 5.95532L42.6399 5.92905C42.7178 5.9273 42.7943 5.94922 42.8594 5.99201L43.343 6.31152C43.674 6.51673 43.7775 7.06717 43.7337 9.79696C43.7288 10.122 43.7233 10.4579 43.7304 10.5312C43.7402 10.6282 43.7126 10.7252 43.6532 10.8024C43.5938 10.8797 43.5071 10.9312 43.4109 10.9465L7.22689 16.7174C7.20693 16.7207 7.18683 16.7223 7.16666 16.7223ZM8.12825 12.2094C7.86044 12.3819 7.65614 12.637 7.54611 12.9361C7.54801 12.9508 7.54829 14.972 7.54857 15.8928L42.9639 10.2446C42.965 10.1242 42.9672 9.97374 42.9699 9.78443C43.0167 8.8271 42.9839 7.86754 42.872 6.91565L42.5387 6.69567L41.7721 6.7143L8.84591 11.9686L8.12825 12.2094Z" fill="#ED1E71"/>
<path d="M5.74353 39.6997C5.52994 39.7046 5.31666 39.6814 5.1091 39.6308C5.05438 39.6151 5.00383 39.5875 4.96109 39.5499L4.44567 39.0974C4.38913 39.0478 4.34849 38.9827 4.32885 38.9102L4.14009 38.2099C4.13139 38.1774 4.12697 38.1439 4.12695 38.1103V16.2388C4.12697 16.1479 4.15938 16.06 4.21835 15.991C4.27731 15.9219 4.35898 15.876 4.44868 15.8618L6.90377 15.47C6.95328 15.4621 7.00384 15.464 7.05258 15.4757C7.1014 15.4873 7.14734 15.5084 7.18796 15.5378C7.22859 15.5673 7.26297 15.6044 7.28924 15.6471C7.31543 15.6898 7.33301 15.7373 7.34092 15.7868C7.34884 15.8363 7.34695 15.8868 7.33525 15.9357C7.32363 15.9844 7.30247 16.0304 7.27306 16.071C7.24364 16.1116 7.20652 16.146 7.1638 16.1722C7.12108 16.1985 7.07367 16.2161 7.02415 16.224L4.89078 16.5643V38.0599L5.03633 38.6L5.39253 38.9124C5.86056 38.9572 6.33276 38.9266 6.79108 38.8216C6.83989 38.8099 6.89053 38.808 6.94011 38.816C6.9897 38.8239 7.03718 38.8415 7.07997 38.8679C7.12269 38.8942 7.15981 38.9287 7.18923 38.9694C7.21857 39.0101 7.23965 39.0562 7.25121 39.1051C7.26276 39.1539 7.26458 39.2046 7.25653 39.2541C7.24848 39.3037 7.23069 39.3512 7.20428 39.3938C7.17788 39.4365 7.14328 39.4736 7.10252 39.5029C7.06169 39.5321 7.01561 39.5532 6.96673 39.5646C6.56465 39.6512 6.15479 39.6965 5.74353 39.6997Z" fill="#ED1E71"/>
<path d="M13.58 13.5295C13.649 13.4338 13.6885 13.3201 13.6941 13.2023C13.6997 13.0845 13.671 12.9676 13.6114 12.8658C13.5519 12.764 13.4641 12.6817 13.3587 12.6287C13.2533 12.5759 13.1348 12.5546 13.0176 12.5677C12.8832 12.577 12.755 12.628 12.6509 12.7136C12.5467 12.7992 12.4719 12.915 12.4367 13.0452C12.4016 13.1753 12.4078 13.3131 12.4546 13.4395C12.5014 13.5659 12.5864 13.6745 12.6979 13.7503C12.7694 13.7967 12.8498 13.8279 12.934 13.8419C13.0181 13.8559 13.1042 13.8524 13.1869 13.8317C13.2697 13.811 13.3473 13.7735 13.4149 13.7215C13.4826 13.6695 13.5388 13.6042 13.58 13.5295Z" fill="#F5A2C5"/>
<path d="M9.81072 14.0292C10.0021 13.5428 9.68227 13.136 9.10216 13.2737C8.83217 13.3379 8.3415 13.9712 8.87588 14.3602C8.95642 14.4118 9.04775 14.4443 9.14279 14.4553C9.23782 14.4663 9.33412 14.4554 9.42433 14.4235C9.51454 14.3915 9.5962 14.3394 9.66322 14.2711C9.73018 14.2027 9.7806 14.12 9.81072 14.0292Z" fill="#F5A2C5"/>
<path d="M11.7219 13.7243C11.7735 13.6119 11.789 13.4863 11.7661 13.3648C11.7432 13.2433 11.6831 13.132 11.5941 13.0462C11.505 12.9604 11.3916 12.9043 11.2693 12.8859C11.1471 12.8675 11.0221 12.8876 10.9118 12.9433C10.8146 12.9952 10.7315 13.0699 10.6696 13.1611C10.6078 13.2522 10.5691 13.3571 10.5568 13.4665C10.5445 13.576 10.5591 13.6868 10.5992 13.7894C10.6393 13.8919 10.7038 13.9832 10.787 14.0553C10.8671 14.1085 10.9586 14.1424 11.0541 14.1542C11.1495 14.166 11.2465 14.1555 11.3372 14.1233C11.4279 14.0912 11.5098 14.0384 11.5765 13.9692C11.6434 13.8999 11.6931 13.8161 11.7219 13.7243Z" fill="#F5A2C5"/>
<path d="M52.5775 42.185L52.563 42.1648L50.1593 40.0704L50.1397 40.0424L50.133 40.0447L50.1296 40.0234L50.133 40.0027L50.1397 39.9881L52.2576 37.4208L52.3551 37.1956L52.3663 37.1637L52.3618 37.1474L52.3714 37.1177L52.3652 37.0897L52.3338 36.9592L52.3254 36.9278L52.3125 36.9037L52.3075 36.8897L52.2851 36.8656L52.2638 36.8376L52.2341 36.8124L51.3623 36.1731L51.2048 36.0733L51.1813 36.0661L39.7436 33.2725L39.5721 33.2792L39.5279 33.2842L39.506 33.2921L39.4847 33.2999L39.4606 33.315L39.4292 33.3464L39.4124 33.3666L39.3878 33.4019L39.3766 33.4282L39.3721 33.4512L39.3693 33.4725L39.3715 33.5179L39.39 33.6932L43.8438 44.8491L43.8578 44.8682L43.976 45.0116L44.0046 45.038L44.8764 45.6778L44.9139 45.7013L44.9358 45.7103L44.9677 45.7215L45.0036 45.7327L45.0971 45.74L45.1347 45.7327L45.1621 45.7338L45.1795 45.7294L45.2058 45.7215L45.2344 45.7036L45.4316 45.5674L47.5024 43.1358L49.1626 44.5354L50.0344 45.1752L50.059 45.1831L50.226 45.2492L50.2479 45.2397L50.4277 45.2072L50.5846 45.0867L52.5764 42.724L52.6661 42.5469L52.6666 42.362L52.67 42.3407L52.5775 42.185Z" fill="white"/>
<path d="M50.1169 40.1929C50.9017 40.8794 51.6615 41.5427 52.4199 42.2077C52.7391 42.4876 52.7487 42.6711 52.4705 43.0007C51.8778 43.7026 51.2856 44.4048 50.6937 45.1074C50.4348 45.4145 50.367 45.4295 50.0572 45.1724C49.3268 44.5665 48.604 43.9516 47.8779 43.3406C47.8014 43.2762 47.7235 43.2135 47.6329 43.1389C46.9313 43.9607 45.8006 45.252 45.635 45.3879C45.5208 45.193 40.6706 33.8456 40.4848 33.6254C41.029 33.7562 40.7931 33.6984 41.3369 33.831C44.5473 34.6139 47.7626 35.3773 50.962 36.2029C51.4489 36.3905 51.893 36.6742 52.2678 37.0371C52.4812 37.2079 52.3376 37.4681 52.1839 37.6562C51.545 38.4376 50.9042 39.2175 50.2615 39.9959C50.2179 40.0489 50.18 40.1065 50.1169 40.1929Z" fill="#F5A2C5"/>
<path d="M45.0883 46.0744C45.0765 46.0746 45.0646 46.0741 45.0527 46.0729L44.9619 46.0608C44.9537 46.0597 44.9116 46.051 44.9033 46.0494C44.8437 46.0367 44.7863 46.0149 44.7332 45.9848C44.7266 45.9809 44.6829 45.9525 44.6774 45.9482L43.8058 45.3091C43.7942 45.3014 43.7554 45.2652 43.7456 45.2559L43.5984 45.0819C43.5717 45.0488 43.549 45.0123 43.5311 44.9736L39.0772 33.8177C39.0661 33.789 39.0587 33.759 39.0553 33.7285L39.0368 33.5534C39.0362 33.5457 39.034 33.4921 39.0335 33.4845C39.0346 33.4724 39.0406 33.3924 39.0428 33.3804C39.0486 33.3527 39.0565 33.3255 39.0663 33.2989C39.0792 33.2677 39.0945 33.2374 39.1123 33.2086C39.1199 33.1982 39.1522 33.1528 39.1609 33.1435C39.1985 33.1042 39.2381 33.0669 39.2796 33.0319C39.35 32.9868 39.432 32.9635 39.5155 32.9651L39.6988 32.9389C39.7402 32.9331 39.7824 32.9354 39.823 32.9455L51.2608 35.7392C51.3039 35.7505 51.3452 35.7674 51.3839 35.7896L51.5415 35.8891L52.4328 36.5408C52.4394 36.5457 52.4754 36.5763 52.4814 36.5812C52.5108 36.6062 52.5356 36.6361 52.5548 36.6694C52.5646 36.6799 52.5738 36.691 52.5822 36.7028C52.6236 36.7636 52.6502 36.8333 52.6598 36.9063L52.6894 37.0513C52.691 37.0601 52.6981 37.1104 52.6993 37.1197C52.7103 37.2029 52.6898 37.2873 52.6418 37.3561L52.5499 37.5553C52.5376 37.5815 52.5222 37.6061 52.5039 37.6286L50.5643 39.9781L52.7835 41.9112C52.8023 41.9277 52.8192 41.9462 52.8339 41.9664C52.8404 41.9751 52.8612 42.0047 52.8672 42.014L52.9493 42.1536C52.9832 42.211 53.0025 42.2758 53.0057 42.3423L53.0045 42.5382C53.0045 42.5665 53.0008 42.5946 52.9936 42.622C52.9868 42.6485 52.9774 42.6743 52.9657 42.6991L52.876 42.8758C52.8644 42.8991 52.8501 42.9211 52.8333 42.9409L50.8417 45.303C50.8259 45.3215 50.8083 45.3384 50.7892 45.3533L50.6676 45.4464C50.6638 45.4491 50.6244 45.4791 50.62 45.4819C50.5765 45.5124 50.5274 45.534 50.4756 45.5454L50.2868 45.5793C50.2319 45.5899 50.1752 45.5861 50.1221 45.5683L49.9115 45.4879C49.8846 45.4772 49.8591 45.4632 49.836 45.4459L48.9632 44.8062L47.5357 43.6019L45.6847 45.7779C45.6655 45.8002 45.6437 45.8201 45.6196 45.8371L45.4336 45.9651C45.396 45.9982 45.3525 46.0242 45.3055 46.0417C45.2631 46.055 45.2195 46.0643 45.1753 46.0696C45.1464 46.0729 45.1174 46.0745 45.0883 46.0744ZM44.1368 44.677L44.2353 44.7974L45.0675 45.4009L45.2015 45.3085L47.2403 42.913C47.2983 42.8446 47.3811 42.8019 47.4705 42.7943C47.5599 42.7867 47.6487 42.8148 47.7174 42.8725L49.6494 44.4756L50.2573 44.9013L50.2775 44.8976L50.3514 44.8417L52.3332 42.4321L52.3064 42.3877L49.9608 40.348C49.9459 40.3364 49.932 40.3235 49.9192 40.3096C49.8984 40.2872 49.8795 40.2631 49.8628 40.2375C49.8568 40.2287 49.8513 40.22 49.8458 40.2112C49.8393 40.1997 49.8256 40.1734 49.8201 40.1608C49.8103 40.1376 49.8031 40.1134 49.7988 40.0886C49.7892 40.0337 49.7904 39.9772 49.8026 39.9227C49.8078 39.8864 49.8193 39.8512 49.8365 39.8188C49.8512 39.792 49.8692 39.7672 49.8902 39.745L49.9022 39.7274C49.9066 39.7209 49.9328 39.6876 49.9378 39.6809L51.9579 37.2341L52.0137 37.1127L52.0032 37.0623L51.0692 36.3854L39.7245 33.6135L39.7202 33.6142L44.1368 44.677Z" fill="#ED1E71"/>
</g>
</g>
<defs>
<clipPath id="clip0_2_221">
<rect width="54.6282" height="46.2238" fill="white"/>
</clipPath>
</defs>
</svg>
