<svg width="45" height="47" viewBox="0 0 45 47" fill="none" xmlns="http://www.w3.org/2000/svg">
<g clip-path="url(#clip0_2_211)">
<mask id="mask0_2_211" style="mask-type:luminance" maskUnits="userSpaceOnUse" x="0" y="0" width="45" height="47">
<path d="M44.1227 0H0V46.9242H44.1227V0Z" fill="white"/>
</mask>
<g mask="url(#mask0_2_211)">
<path d="M1.74475 10.4211C1.74475 10.4211 1.78824 27.7251 1.74727 33.8099C1.7367 35.3754 5.35693 37.1258 5.35693 37.1258L38.3575 32.0167L38.2841 6.13461L33.0862 4.39954L2.16315 9.51796L1.74475 10.4211Z" fill="white"/>
<path d="M14.2198 7.33575C14.2198 7.33575 13.0534 -0.0265504 24.1042 0.438363C24.1042 0.438363 27.3586 0.918741 27.5017 6.32915C27.5017 6.32915 25.8565 7.62675 24.9267 6.58961L24.1428 3.61175L22.8175 3.16149C22.8175 3.16149 17.2943 3.22424 17.2123 6.06925C17.2345 6.89658 17.0593 7.71731 16.7012 8.46347C16.7012 8.46347 14.8855 9.0475 14.2198 7.33575Z" fill="white"/>
<path d="M37.1126 30.8627C37.1156 29.0607 37.1179 27.2588 37.1194 25.4568C37.1205 23.9347 37.1217 22.4126 37.1139 20.8905C37.1135 20.8087 37.2337 20.5805 36.9576 20.6661C37.1992 20.4553 37.4207 20.2226 37.6193 19.9709C37.607 19.9384 37.6054 19.9113 37.5934 19.9055C37.0525 19.6421 37.1021 19.1815 37.1553 18.693C37.1822 18.3117 37.1858 17.9291 37.1664 17.5474C37.1644 17.4009 37.1221 17.2548 37.1217 17.1085C37.1182 15.633 37.1266 14.1576 37.1173 12.6822C37.1104 11.6023 37.0845 10.5223 37.0623 9.44244C37.0528 8.98952 36.9661 8.93489 36.5229 8.90687C35.4723 8.88201 34.4222 8.97495 33.3922 9.18373C32.5575 9.31771 31.7156 9.40728 30.879 9.53069C30.0708 9.64989 29.2662 9.79339 28.4583 9.91483C27.5313 10.0541 26.6016 10.1744 25.6749 10.3146C24.622 10.4739 23.5721 10.6518 22.5194 10.8112C21.5926 10.9514 20.6628 11.0708 19.7362 11.2112C18.8194 11.3501 17.9056 11.5081 16.9892 11.6495C16.2083 11.77 15.4251 11.8756 14.6439 11.9939C13.8179 12.1189 11.3815 12.4258 10.5543 12.5422C10.0162 12.6178 9.47457 12.6731 8.93277 12.7149C8.46122 12.7512 7.98679 12.778 7.51454 12.7676C7.13648 12.7535 6.76001 12.7112 6.38818 12.6411C5.88077 12.5532 5.63656 12.1271 5.36152 11.7624C4.89691 11.0558 4.32548 10.4255 3.66763 9.89403C3.3033 9.6751 2.92245 9.48488 2.52856 9.32506C6.32669 8.60432 14.481 7.35242 14.4662 7.56365C14.4214 8.19846 16.9406 8.38419 17.3957 8.25813C17.3957 8.14033 17.473 7.98646 17.3957 7.88449C16.2185 6.32867 22.3039 6.19266 24.31 5.87386C24.31 6.00657 24.4617 6.29659 24.4441 6.40137C24.3996 6.66652 24.5535 6.6909 24.7749 6.74111C26.137 7.12733 26.1348 4.61699 25.8448 3.94268C25.4869 3.11037 24.7777 1.88105 23.9185 1.68605C23.2393 1.54103 22.5377 1.53379 21.8556 1.66476C21.1457 1.82253 20.4058 1.77758 19.7202 1.53505C19.5837 1.48087 19.4332 1.46059 19.2988 1.40246C19.2167 1.35432 19.1411 1.29592 19.0736 1.22866C19.1428 1.14923 19.1992 1.01976 19.2831 0.998222C20.0095 0.811926 20.7368 0.624131 21.4723 0.480116C21.9274 0.400366 22.3875 0.352223 22.8492 0.336052C24.6896 0.235963 26.7947 2.44033 27.0593 4.28018C27.0897 4.49162 27.1218 4.70278 27.1579 4.94623C27.6937 4.86218 27.2152 5.4245 27.7367 5.34284C29.8103 5.01829 31.8802 4.66699 33.9593 4.38286C34.7723 4.20321 35.6198 4.2633 36.3992 4.55592C36.7433 4.71518 37.064 4.92087 37.3523 5.16712C38.013 5.73091 38.562 6.4139 38.9706 7.18041C39.1541 7.5259 39.255 7.90928 39.2653 8.30036C39.2908 11.531 39.2941 14.7618 39.2758 17.9927C39.2848 18.6546 39.0395 19.295 38.5903 19.7817C38.4807 19.9129 38.4194 20.0778 38.4167 20.2488C38.4069 23.4984 38.4047 26.7481 38.4097 29.9978C38.4098 30.1529 38.4081 30.3076 38.397 30.4613L37.1126 30.8627Z" fill="#FFB7A4"/>
<path d="M6.14461 37.4465C5.99522 37.4465 5.8174 37.435 5.61766 37.4203C5.52031 37.4131 5.4322 37.406 5.36651 37.4044C5.32575 37.4032 5.28555 37.3947 5.2478 37.3792L4.69899 37.1526C4.67364 37.1422 4.64962 37.1288 4.62735 37.1127L3.32671 36.1585C3.12647 36.0091 2.88737 35.8351 2.64995 35.6616C2.42884 35.5008 2.20942 35.3405 2.02453 35.2031C1.99875 35.1839 1.97585 35.1611 1.95666 35.1353C1.6665 34.8353 1.48637 34.446 1.44561 34.0306L1.41661 33.8697C1.4129 33.8501 1.41101 33.8301 1.41115 33.8101C1.40674 32.5779 1.40842 27.2415 1.41003 22.212L1.4122 15.9788C1.4122 14.2957 1.4122 13.0532 1.41115 12.6225C1.41101 12.6016 1.41283 12.5807 1.41661 12.5602C1.50997 12.0512 1.73675 11.5762 2.07376 11.1835C2.17517 11.0583 2.30292 10.9568 2.44782 10.8863C2.59273 10.8158 2.75136 10.7779 2.91251 10.7753H2.91693C3.071 10.7754 3.22326 10.8083 3.36376 10.8717C3.50418 10.9351 3.62954 11.0276 3.73159 11.143C4.09703 11.5789 4.4115 12.0551 4.66888 12.5623C4.7913 12.7916 4.85854 13.0462 4.86533 13.3059C4.87794 13.795 4.86204 14.577 4.86204 14.577V35.6978L4.9895 36.2384L5.18981 36.5207L5.55364 36.7149C5.56996 36.7235 5.58551 36.7334 5.60015 36.7445L5.66689 36.7495C5.87931 36.773 6.09334 36.7775 6.30653 36.7631L36.6333 32.0182C36.7017 31.9913 36.8041 31.9552 36.908 31.9186C37.0043 31.8847 37.1022 31.8507 37.1673 31.8256C37.2243 31.7758 37.2976 31.7145 37.3725 31.6521C37.459 31.5799 37.5482 31.5061 37.6128 31.4486L37.8573 31.0032L37.9519 30.3931L37.9482 19.9632C37.9482 19.8737 37.9838 19.7879 38.0472 19.7247C38.2645 19.5073 38.4608 19.2699 38.6332 19.0155C38.6424 18.9581 38.655 18.9012 38.6709 18.8454C38.6917 18.766 38.7114 18.6938 38.7251 18.6549C38.7513 18.5619 38.7978 18.2725 38.8192 18.1166L38.8542 17.6821C38.9023 17.2752 38.9159 16.8651 38.8947 16.4559C38.8898 16.219 38.8855 15.9931 38.8915 15.8042C38.8882 13.9899 38.8882 11.931 38.8882 10.1062C38.8816 9.8649 38.8855 9.60717 38.8893 9.34671C38.9201 8.75861 38.8863 8.16891 38.7886 7.58817C38.5743 7.11851 38.2973 6.68004 37.9651 6.28482C37.5408 5.70752 37.0123 5.21467 36.4068 4.83158C36.2283 4.75012 36.043 4.68436 35.8531 4.63519C35.7817 4.63106 35.7108 4.62028 35.6413 4.60291C35.5735 4.58883 35.505 4.57819 35.4362 4.57111C35.4108 4.57013 35.3856 4.56607 35.3612 4.55914C35.0945 4.52482 34.8246 4.52517 34.558 4.56026C34.4119 4.57118 34.2762 4.58155 34.1678 4.58267C32.6494 4.79166 31.3943 4.99686 30.0653 5.2146C29.2631 5.34536 28.4331 5.48165 27.4909 5.62607C27.4473 5.63279 27.4028 5.63076 27.3599 5.62025C27.317 5.60975 27.2767 5.59091 27.2411 5.56478C27.2056 5.53866 27.1755 5.50581 27.1527 5.46806C27.1298 5.43031 27.1146 5.38843 27.1079 5.3448C27.1012 5.30124 27.1031 5.2567 27.1137 5.21383C27.1242 5.17104 27.1431 5.13063 27.1692 5.09505C27.1953 5.05954 27.2282 5.02943 27.2659 5.0066C27.3037 4.98369 27.3455 4.9685 27.3891 4.96184C28.3286 4.81736 29.157 4.6817 29.9569 4.55087C31.2903 4.33257 32.5499 4.12631 34.118 3.91347C34.2559 3.90906 34.3769 3.89982 34.5065 3.88994C34.8386 3.84666 35.1753 3.85086 35.5062 3.90255C35.5751 3.90906 35.6687 3.9244 35.7601 3.94135C35.8307 3.95395 35.8996 3.96712 35.9456 3.97034C36.216 4.03141 36.4788 4.12246 36.7291 4.24173C37.4165 4.67007 38.0169 5.22441 38.4986 5.87553C38.8834 6.3356 39.1983 6.84974 39.4331 7.40152C39.5518 8.04585 39.5948 8.70174 39.5612 9.35602C39.5579 9.60766 39.5541 9.85664 39.5601 10.0979C39.5601 11.9309 39.5601 13.9888 39.5634 15.8147C39.5574 16.0045 39.5623 16.2184 39.5667 16.4422C39.5902 16.8843 39.5746 17.3276 39.5202 17.7669L39.4873 18.1893C39.4588 18.4157 39.4177 18.6404 39.3642 18.8623C39.3478 18.9105 39.3358 18.9603 39.3216 19.0144C39.2967 19.1304 39.2606 19.2436 39.2138 19.3526C39.0381 19.6186 38.8394 19.8686 38.6201 20.1V30.4445L38.515 31.1471C38.5108 31.176 38.5024 31.2042 38.4904 31.2308L38.4143 31.4037L38.1676 31.8321C38.1508 31.8604 38.1303 31.8862 38.1063 31.9087C38.0351 31.9744 37.9175 32.0734 37.8032 32.1681C37.714 32.2425 37.6275 32.3147 37.5733 32.3639C37.5465 32.3885 37.5158 32.4085 37.4826 32.423C37.4169 32.4515 37.2729 32.503 37.1312 32.5527C37.0191 32.5921 36.908 32.631 36.8522 32.6545C36.8272 32.6648 36.8012 32.6721 36.7745 32.6764L6.42475 37.4246C6.33231 37.4411 6.23846 37.4484 6.14461 37.4465ZM2.46498 34.6927C2.63951 34.8223 2.84248 34.9701 3.04607 35.1184C3.28574 35.2929 3.52701 35.4691 3.72668 35.6179L4.24159 35.9954L4.19894 35.8133C4.19298 35.7881 4.19004 35.7624 4.19018 35.7367V14.5699C4.19018 14.5611 4.20545 13.8 4.1934 13.3234C4.18899 13.1682 4.14872 13.0162 4.07574 12.8791C3.84287 12.4183 3.55853 11.9853 3.22824 11.5884C3.18923 11.5443 3.14125 11.509 3.0876 11.4848C3.03396 11.4605 2.97576 11.4479 2.91693 11.4478C2.85915 11.4439 2.8013 11.4544 2.74856 11.4784C2.69589 11.5023 2.64995 11.539 2.61486 11.5851C2.34697 11.8882 2.16376 12.2566 2.08357 12.6532C2.08413 13.1122 2.08413 14.3352 2.08413 15.9788L2.08252 22.212C2.08083 27.2015 2.07922 32.4925 2.08308 33.7783L2.10717 33.9119C2.13105 34.206 2.25775 34.4825 2.46498 34.6927Z" fill="#FC7C54"/>
<path d="M17.347 7.23623C17.2624 7.23609 17.181 7.20422 17.119 7.14679C17.0569 7.08936 17.0188 7.01071 17.0122 6.92642C17.0056 6.84216 17.031 6.75847 17.0833 6.69208C17.1356 6.62568 17.211 6.58142 17.2944 6.56818L24.4655 5.42463C24.5092 5.41742 24.5539 5.41896 24.597 5.42912C24.64 5.43927 24.6807 5.4579 24.7167 5.48374C24.7525 5.50966 24.783 5.54243 24.8062 5.58011C24.8294 5.61779 24.845 5.65975 24.852 5.70345C24.8589 5.74715 24.8572 5.79183 24.8469 5.83491C24.8366 5.87798 24.8179 5.91853 24.7918 5.95439C24.7657 5.99018 24.7329 6.0205 24.6952 6.04354C24.6573 6.06666 24.6154 6.08199 24.5716 6.08886L17.4006 7.23238C17.3828 7.23497 17.3649 7.2363 17.347 7.23623Z" fill="#FC7C54"/>
<path d="M24.2703 22.7341C24.1856 22.7339 24.1041 22.7019 24.0421 22.6443C23.9801 22.5866 23.9421 22.5078 23.9357 22.4234C23.9294 22.339 23.9551 22.2552 24.0078 22.189C24.0605 22.1227 24.1363 22.0788 24.2199 22.0661C28.1857 21.4554 33.335 20.7178 37.0333 20.2303C37.3935 20.1036 37.7363 19.9321 38.0537 19.7199C38.0829 19.6877 38.1182 19.6617 38.1575 19.6434C38.1969 19.6252 38.2395 19.6149 38.2829 19.6135C38.3263 19.612 38.3695 19.6192 38.41 19.6348C38.4505 19.6503 38.4875 19.6738 38.5188 19.704C38.5839 19.7669 38.622 19.8527 38.6248 19.9433C38.6277 20.0338 38.5951 20.1218 38.5341 20.1887C38.1106 20.5085 37.6324 20.7483 37.123 20.8967C33.4275 21.3836 28.2836 22.1207 24.3217 22.7302C24.3047 22.7329 24.2875 22.7341 24.2703 22.7341Z" fill="#FC7C54"/>
<path d="M1.74688 12.9576C1.66508 12.9576 1.58615 12.9277 1.52479 12.8736C1.46351 12.8195 1.42394 12.7449 1.41365 12.6638L1.20467 11.0097C1.15093 10.5868 1.241 10.158 1.46043 9.79235C1.67985 9.42677 2.01582 9.14557 2.41439 8.99401C2.64173 8.90002 2.87614 8.82397 3.11531 8.7664C5.07689 8.4179 7.29838 8.09503 9.44702 7.7826C11.0425 7.55064 12.6917 7.31098 14.1668 7.0697C14.2548 7.05534 14.3448 7.07649 14.4171 7.12846C14.4895 7.1805 14.5382 7.25915 14.5526 7.34711C14.5669 7.43501 14.5458 7.52508 14.4938 7.59742C14.4417 7.66977 14.3631 7.71845 14.2752 7.7328C12.7945 7.9752 11.1421 8.21542 9.54388 8.44794C7.40014 8.75932 5.18411 9.08156 3.23676 9.42789C3.03834 9.47803 2.84392 9.54296 2.65518 9.62217C2.39723 9.71994 2.17977 9.90161 2.03774 10.1381C1.89564 10.3745 1.83737 10.6518 1.87217 10.9255L2.08116 12.5795C2.09223 12.668 2.06778 12.7573 2.01309 12.8278C1.95846 12.8983 1.87799 12.9442 1.78953 12.9555C1.77538 12.957 1.7611 12.9577 1.74688 12.9576Z" fill="#FC7C54"/>
<path d="M21.1071 26.4532C21.0568 26.4522 21.0066 26.4485 20.9566 26.4423C20.8758 26.451 20.7942 26.4358 20.7219 26.3985C20.5851 26.3201 20.4577 26.2263 20.3422 26.1189C19.8623 25.7124 19.8328 25.6528 19.8125 25.5285C19.7707 25.3057 19.7602 25.0781 19.7814 24.8523L19.9137 20.6895C19.9144 20.6684 19.917 20.6473 19.9214 20.6266L19.9761 20.381C19.9847 20.3438 19.9992 20.3083 20.0193 20.2759L20.1583 20.0543C20.1779 20.0233 20.2023 19.9955 20.2306 19.9722L20.4221 19.8157C20.4461 19.7963 20.4719 19.7793 20.4992 19.7648C20.7173 19.6765 20.9472 19.6206 21.1815 19.5991C21.2948 19.5865 21.5519 19.5433 21.8551 19.4923C22.431 19.3765 23.0142 19.3003 23.6005 19.2642C23.634 19.2668 23.667 19.2742 23.6984 19.2861C23.7597 19.3102 23.914 19.3917 23.9709 19.4229C23.992 19.4348 24.0118 19.4489 24.03 19.465L24.2986 19.703C24.4026 19.7931 24.4901 19.9004 24.5575 20.0203C24.6658 20.1533 24.6855 20.3038 24.622 21.9255C24.6127 22.1564 24.605 22.3332 24.6067 22.383L24.5241 25.0181C24.5234 25.0394 24.5209 25.0607 24.5164 25.0816L24.4617 25.3267C24.4536 25.3624 24.4397 25.3966 24.4207 25.4279L24.2795 25.6539C24.2565 25.69 24.227 25.7216 24.1924 25.7469L23.9998 25.8875C23.975 25.906 23.9475 25.9208 23.9183 25.9313L23.688 26.0167C23.668 26.0243 23.6473 26.0298 23.6262 26.0331L23.2092 26.0993C22.638 26.189 21.5864 26.3548 21.2723 26.4276C21.2191 26.4455 21.1632 26.4541 21.1071 26.4532ZM20.9791 25.7682C20.9961 25.7699 21.0136 25.7721 21.0305 25.7737C21.0502 25.7759 21.0704 25.7786 21.0885 25.7802L21.0891 25.7797C21.3758 25.7091 22.2425 25.5707 23.1053 25.435L23.4862 25.3748L23.6415 25.3173L23.7439 25.2424L23.8178 25.1242L23.8533 24.9661L23.9349 22.3884C23.9326 22.3747 23.9392 22.1701 23.9501 21.8993C23.9655 21.508 23.9999 20.6277 23.9808 20.376L23.9792 20.3738C23.9085 20.3327 23.8563 20.2662 23.8331 20.1878L23.6125 19.993C23.5803 19.9755 23.537 19.9525 23.5009 19.9345C23.2372 19.9432 22.4198 20.08 21.9656 20.1555C21.6472 20.2092 21.3769 20.254 21.2516 20.2682C21.1058 20.2823 20.962 20.312 20.8226 20.3569L20.699 20.4581L20.6202 20.5839L20.5846 20.7421L20.4533 24.8808C20.4429 25.0276 20.4439 25.1751 20.4566 25.3218C20.5293 25.3913 20.6732 25.5187 20.7947 25.6222C20.8526 25.6751 20.9142 25.7239 20.9791 25.7682Z" fill="#FC7C54"/>
<path d="M5.35692 37.4621C5.26854 37.4621 5.18372 37.4272 5.12083 37.3651C5.05794 37.3029 5.02208 37.2185 5.02096 37.1302C5.01991 37.0418 5.05367 36.9565 5.11502 36.8929C5.17637 36.8292 5.26034 36.7923 5.34873 36.7901L6.00041 36.7743L36.6855 31.9286L37.2403 31.7065L37.5888 31.4061L37.875 30.9542L37.9631 30.6707L38.0249 30.3254L38.0539 30.331C38.0173 29.8768 38.0178 28.7344 38.0195 25.6965C38.0211 23.0363 38.0228 20.0203 38.0195 19.895L38.3554 19.8824L38.583 19.6351C38.6952 19.7385 38.6952 19.7385 38.6919 25.697C38.6908 27.9267 38.6891 30.2314 38.6913 30.3725C38.6925 30.3979 38.6907 30.4231 38.6859 30.448L38.6148 30.8316L38.5043 31.196C38.4954 31.2244 38.4829 31.2514 38.467 31.2765L38.13 31.8082C38.1124 31.8363 38.0906 31.8613 38.0654 31.8827L37.637 32.252C37.609 32.2765 37.577 32.2959 37.5423 32.3095L36.8999 32.5667C36.8768 32.5761 36.8525 32.5829 36.8277 32.5869L6.06107 37.4424L5.36512 37.4621H5.35692Z" fill="#FC7C54"/>
<path d="M6.97556 25.5577C6.62678 25.5582 6.28025 25.5026 5.94911 25.393C5.38518 25.1556 4.9261 24.7222 4.65674 24.1729L4.56863 24.0311C4.39438 23.7924 4.26734 23.5226 4.19436 23.2361C4.18778 23.1925 4.18981 23.148 4.20038 23.1052C4.21096 23.0624 4.22987 23.022 4.25606 22.9865C4.28225 22.951 4.3151 22.921 4.35292 22.8982C4.39067 22.8754 4.43255 22.8602 4.47618 22.8537C4.51975 22.847 4.56429 22.8491 4.60708 22.8597C4.64994 22.8703 4.69022 22.8892 4.72572 22.9154C4.76123 22.9415 4.79128 22.9744 4.81411 23.0122C4.83687 23.0499 4.852 23.0918 4.85865 23.1354C4.92533 23.3265 5.01889 23.507 5.13656 23.6716L5.23454 23.8292C5.42594 24.2362 5.75336 24.5636 6.16034 24.755C6.63323 24.9075 7.13882 24.9276 7.62235 24.813C9.87717 24.4136 12.4384 24.0333 14.9149 23.665C16.6504 23.4073 18.3581 23.1535 19.9071 22.9029C19.9506 22.8958 19.9951 22.8974 20.0381 22.9076C20.081 22.9177 20.1215 22.9362 20.1573 22.9621C20.193 22.9879 20.2234 23.0205 20.2465 23.058C20.2697 23.0956 20.2852 23.1373 20.2923 23.1808C20.2993 23.2244 20.2977 23.2689 20.2875 23.3118C20.2774 23.3547 20.2589 23.3953 20.2331 23.431C20.2073 23.4668 20.1746 23.4971 20.1372 23.5203C20.0996 23.5434 20.0579 23.559 20.0143 23.566C18.4632 23.8177 16.7522 24.0721 15.0139 24.3304C12.5413 24.6976 9.98495 25.0772 7.7772 25.4668C7.51415 25.5264 7.24528 25.5569 6.97556 25.5577Z" fill="#FC7C54"/>
<path d="M15.8409 8.79874C15.3804 8.79468 14.9244 8.70811 14.4944 8.54325C14.3023 8.46817 14.1295 8.35093 13.9888 8.20014C13.8198 8.05348 13.8454 7.79638 13.8744 7.50307C13.8793 7.45216 13.8849 7.40621 13.8859 7.37561C13.8838 7.356 13.8832 7.33618 13.8843 7.3165C13.9091 6.23702 14.1178 5.16974 14.5014 4.16045C15.0821 2.88699 16.0552 1.83277 17.2783 1.15221C18.4645 0.612006 19.7322 0.272703 21.0296 0.148171L21.2244 0.119176C22.3593 -0.11113 23.5347 -0.0377115 24.6321 0.332016C25.0161 0.497035 25.3829 0.699748 25.7269 0.937173C25.7686 0.96296 25.8067 0.994238 25.8401 1.03018L26.2468 1.37381C26.2872 1.40936 26.4387 1.58227 26.564 1.72945C26.6313 1.80769 26.6893 1.87609 26.7107 1.89908C26.7212 1.90947 26.7534 1.95214 26.7621 1.96418L27.103 2.5097C27.4562 3.24872 27.6722 4.04573 27.7404 4.86193C27.7765 5.26569 27.8204 5.81288 27.8379 6.21503C27.835 6.31125 27.8125 6.40595 27.772 6.49328C27.7314 6.58069 27.6737 6.65891 27.6021 6.72335C27.5977 6.72825 27.5928 6.73267 27.5884 6.73701C27.2969 6.96631 26.9425 7.10113 26.5724 7.12334C26.0656 7.16872 25.5551 7.10989 25.072 6.95041C24.8347 6.88556 24.6172 6.76278 24.439 6.59309C24.3449 6.51913 24.2813 6.41323 24.26 6.29543C24.2563 6.27526 24.2544 6.25473 24.2545 6.23415L24.2539 6.00709C24.2895 5.38216 24.2267 4.75555 24.068 4.15002C23.8059 3.41688 23.1138 3.43929 22.091 3.56129L21.5582 3.64176C20.8119 3.73582 20.0723 3.87688 19.3439 4.06415C17.6799 4.58998 17.3801 5.92444 17.4381 7.90522C17.4392 7.93617 17.4359 7.96713 17.4282 7.99711C17.3237 8.41074 16.927 8.67176 16.2485 8.77297C16.1134 8.79012 15.9772 8.79874 15.8409 8.79874ZM14.5261 7.78812C14.5898 7.8431 14.6623 7.88694 14.7405 7.91783C15.1901 8.09383 15.6755 8.15875 16.1555 8.10713C16.6031 8.04039 16.729 7.92273 16.7646 7.86089C16.7153 5.95352 16.9834 4.10519 19.1507 3.42017C19.9101 3.22302 20.6813 3.07482 21.4596 2.97642L21.998 2.89546C22.9528 2.78326 24.2392 2.63114 24.7032 3.9301C24.8881 4.6063 24.9635 5.30771 24.9265 6.00765V6.13133C25.03 6.21285 25.1484 6.27344 25.275 6.30972C25.6673 6.44146 26.0824 6.49104 26.4946 6.45525C26.7233 6.44447 26.9446 6.37044 27.1337 6.24129C27.1481 6.22757 27.1607 6.21187 27.1709 6.19479C27.1496 5.85119 27.1058 5.31605 27.0714 4.92539C27.0128 4.20464 26.8264 3.50001 26.5209 2.84454L26.2047 2.33902C26.2014 2.33902 26.1325 2.25855 26.0531 2.1661C25.9557 2.05176 25.8408 1.91661 25.8003 1.87667L25.3697 1.50842C25.3476 1.49376 25.3265 1.47786 25.3062 1.4608C25.0142 1.26481 24.7048 1.09596 24.382 0.95637C23.3951 0.633185 22.3409 0.573766 21.324 0.784018L21.1297 0.813013C19.9088 0.926212 18.7152 1.24089 17.5972 1.74428C16.5088 2.35702 15.641 3.29698 15.117 4.43079C14.7694 5.35702 14.5802 6.33514 14.5573 7.3242C14.5592 7.40628 14.5546 7.48843 14.5436 7.56989C14.5382 7.62402 14.5282 7.72081 14.5261 7.78812Z" fill="#FC7C54"/>
<path d="M42.1795 37.3778L42.1789 36.1611L42.1783 34.9451V33.9251L42.1771 33.2485L42.1687 32.8704L42.1477 32.6982L42.1214 32.6433L42.0981 32.6032L42.0463 32.5472L41.9694 32.4839L41.8764 32.4152L41.7758 32.342L41.6687 32.2636L41.5534 32.1793L41.4292 32.0882L41.2946 31.9894L41.1489 31.8824L40.9906 31.7664L40.8194 31.6408L40.6348 31.5055L40.4396 31.3622L40.2372 31.2137L40.0307 31.0622L39.8229 30.9099L39.6147 30.7572L39.4058 30.604L39.1963 30.4503L38.9868 30.2966L38.7803 30.1454L38.5814 29.9994L38.3937 29.8618L38.2202 29.7342L38.0568 29.6146L37.8994 29.4991L37.7432 29.3846L37.5858 29.2691L37.4344 29.1578L37.2979 29.0576L37.1863 28.9752L37.1055 28.9163L37.0489 28.8818L36.9945 28.8628L36.9577 28.8531L36.8715 28.8526L36.8178 28.8589L36.7398 28.7901L36.5519 28.6732L36.3209 28.5656L36.0512 28.4691L35.7472 28.3855L35.6987 28.3843L35.3743 28.3176L35.0263 28.2659L34.6626 28.229L34.2886 28.2088L33.9102 28.2065L33.5332 28.2212L33.1643 28.2515L32.8109 28.2979L32.4798 28.3607L32.1747 28.4379L32.1189 28.4399L31.8368 28.5321L31.5923 28.6361L31.3902 28.7502L31.2333 28.8724L31.1238 29.0005L31.0764 29.0412L31.0157 29.1751L31.0075 29.3107L30.9825 29.395L30.9733 29.5423L30.972 29.7764V29.7871L30.4834 29.8651L29.5573 30.0128L28.7061 30.1486L27.9672 30.2664L27.3689 30.3618L26.9017 30.4364L26.5473 30.4929L26.287 30.5344L26.1033 30.5645L25.9826 30.5892L25.9116 30.6148L25.8724 30.6461L25.8475 30.7044L25.8323 30.8737L25.8257 31.2503L25.8244 31.9268L25.8251 32.9467L25.8267 34.1626L25.8286 35.3791L25.8302 36.4008L25.8337 37.0808L25.8517 37.4648L25.8992 37.647L25.9179 37.6724L25.9651 37.7112L26.0432 37.7691L26.1528 37.8493L26.2867 37.9475L26.4359 38.057L26.5914 38.171L26.7462 38.2846L26.9027 38.3993L27.0651 38.5184L27.2377 38.645L27.4236 38.7814L27.6204 38.9258L27.8247 39.0756L28.0325 39.2281L28.241 39.3809L28.4495 39.5338L28.6579 39.6868L28.8664 39.8397L29.0742 39.9921L29.2785 40.1419L29.4753 40.2863L29.6612 40.4227L29.8333 40.5489L29.9919 40.6651L30.1379 40.7723L30.2726 40.871L30.3969 40.9622L30.5117 41.0465L30.6177 41.1242L30.7157 41.1962L30.8064 41.2622L30.8909 41.32L30.9702 41.3664L31.0453 41.3985L31.084 41.4343L31.1543 41.448L31.2409 41.4469L31.3616 41.4324L31.5349 41.4054L31.7793 41.3665L32.1154 41.3128L32.5647 41.2412L33.1485 41.1481L33.8781 41.0318L34.7245 40.8967L35.6489 40.7493L36.612 40.5957L37.5756 40.4421L38.4999 40.2946L39.3468 40.1595L40.0773 40.0431L40.6623 39.9497L41.113 39.8778L41.4502 39.8241L41.6944 39.7851L41.8649 39.7572L41.9733 39.7353L42.029 39.7136L42.1022 39.6625L42.14 39.4923L42.1633 39.4597L42.1783 39.0794L42.1801 38.3998L42.1795 37.3778ZM37.0938 31.4501L37.0927 31.3568L37.0984 31.3744L37.0938 31.4501ZM37.1058 31.3405L37.1056 31.3395L37.1159 31.354L37.1058 31.3405ZM37.1009 31.334L37.0924 31.3227V31.3209L37.1009 31.333L37.1009 31.334ZM30.9705 31.3348L30.9698 31.4044L30.9541 31.5272L30.9625 31.3893L30.9199 31.4466L30.9705 31.3348Z" fill="white"/>
<path d="M26.0995 30.622L31.0025 29.8373C31.0025 29.9861 31.0025 30.1184 31.0025 30.2507C31.0025 30.55 31.0035 30.8492 31.0014 31.1484C31.0053 31.1974 30.9967 31.2465 30.9764 31.2912C30.9199 31.3497 30.8786 31.4211 30.8562 31.4994C30.8338 31.5775 30.8308 31.66 30.8478 31.7396C30.8646 31.8191 30.9008 31.8933 30.9531 31.9556C31.0053 32.0179 31.0722 32.0665 31.1475 32.0969C31.4962 32.3123 31.8839 32.4566 32.2885 32.5214C32.9175 32.6585 33.5614 32.7149 34.2045 32.6891C34.4808 32.6695 34.7555 32.6316 35.0267 32.576C35.2352 32.5383 35.2802 32.4731 35.2815 32.259C35.2839 31.8202 35.2822 31.3814 35.2821 30.9425C35.2821 30.8278 35.2825 30.7131 35.2818 30.5984C35.2805 30.3812 35.1989 30.2901 34.9828 30.2837C34.5348 30.2702 34.0848 30.2848 33.6389 30.2475C32.9416 30.2337 32.2566 30.0615 31.6356 29.744C31.5155 29.6759 31.4096 29.5855 31.3235 29.4776C31.2856 29.4189 31.2608 29.3528 31.2507 29.2836C31.2406 29.2144 31.2455 29.144 31.265 29.0769C31.2846 29.0098 31.3183 28.9477 31.3641 28.8948C31.4097 28.8419 31.4663 28.7995 31.5297 28.7704C31.83 28.5819 32.1653 28.456 32.5154 28.4001C33.5601 28.1923 34.6362 28.1993 35.6782 28.4205C36.0916 28.4892 36.4857 28.6455 36.8338 28.879C36.9014 28.929 37.0172 28.9092 37.0964 28.9497C37.2042 29.0115 37.3068 29.0817 37.4034 29.1598C38.4804 29.9498 39.5572 30.74 40.6336 31.5306C41.102 31.8741 41.575 32.2116 42.0381 32.5621C42.1102 32.6272 42.1594 32.7139 42.1784 32.8093C42.2021 32.9366 42.2115 33.0662 42.2065 33.1956C42.2083 35.1605 42.2087 37.1254 42.2076 39.0904C42.2075 39.2346 42.1937 39.3788 42.1842 39.523C42.1856 39.5885 42.1613 39.6518 42.1163 39.6995C42.0713 39.7472 42.0094 39.7752 41.944 39.7775C41.3979 39.8614 40.8529 39.9528 40.3073 40.0401C39.2208 40.214 38.1343 40.3874 37.0476 40.5604C35.8874 40.7457 34.7271 40.931 33.5668 41.1164C32.8298 41.234 32.0934 41.3514 31.3578 41.4684C31.3578 40.4348 31.3578 39.404 31.3576 38.3761C31.3561 37.1494 31.3536 35.9227 31.3502 34.696C31.3496 34.6457 31.3353 34.5965 31.3087 34.5538C31.2821 34.5111 31.2442 34.4765 31.1993 34.4538C30.9484 34.2788 30.7241 34.0664 30.4775 33.8849C29.4223 33.1083 28.3621 32.3385 27.3054 31.5641C26.9019 31.2684 26.5027 30.9668 26.1014 30.6679L26.0995 30.622Z" fill="#FFB7A4"/>
<path d="M42.1218 32.989C42.0752 32.9892 42.0292 32.9792 41.9868 32.9599C41.9444 32.9407 41.9067 32.9125 41.8761 32.8774C41.8637 32.865 41.8524 32.8517 41.8422 32.8375L41.7557 32.7423L36.9265 29.201C36.9183 29.1999 36.9106 29.1989 36.903 29.1973L36.8953 29.1984C36.7984 29.2122 36.6999 29.1879 36.6206 29.1305C36.6163 29.1267 36.5878 29.1021 36.5698 29.0862L36.4226 28.9976C36.3459 28.9523 36.2904 28.8785 36.2681 28.7923C36.2458 28.7062 36.2585 28.6147 36.3036 28.5379C36.3487 28.4611 36.4223 28.4054 36.5084 28.3828C36.5945 28.3603 36.686 28.3727 36.7629 28.4175L36.9445 28.522C36.9795 28.5202 37.0144 28.5253 37.0474 28.5368C37.0665 28.5384 37.0853 28.5416 37.1038 28.5467C37.1447 28.5588 37.1844 28.5746 37.2225 28.5938L42.2597 32.287C42.2809 32.3041 42.2998 32.3237 42.316 32.3456L42.3576 32.4014L42.3702 32.4195C42.379 32.429 42.3872 32.4391 42.3948 32.4496C42.4318 32.5001 42.4541 32.5598 42.4592 32.6222C42.4642 32.6846 42.452 32.7472 42.4237 32.8031C42.3955 32.8589 42.3523 32.9059 42.299 32.9387C42.2457 32.9715 42.1844 32.9889 42.1218 32.989Z" fill="#FC7C54"/>
<path d="M34.1807 30.6369L33.3622 30.6134L32.5863 30.5176L31.8985 30.3534L31.3371 30.1269L31.1111 29.989L30.9229 29.8293C30.9037 29.8123 30.8864 29.7932 30.8715 29.7723L30.7773 29.6405C30.7572 29.6123 30.7415 29.5811 30.7308 29.5481L30.6876 29.4135C30.6749 29.3738 30.6697 29.332 30.6723 29.2904L30.6805 29.1546C30.6831 29.1106 30.6944 29.0674 30.7137 29.0277C30.733 28.988 30.7599 28.9525 30.7929 28.9232C30.826 28.8939 30.8645 28.8713 30.9062 28.8569C30.9479 28.8425 30.9921 28.8364 31.0362 28.8391C31.0802 28.8418 31.1234 28.8531 31.1631 28.8724C31.2028 28.8918 31.2383 28.9187 31.2675 28.9518C31.2968 28.9849 31.3193 29.0234 31.3336 29.0651C31.3481 29.1069 31.354 29.1511 31.3513 29.1952L31.3469 29.2679L31.3962 29.3505L31.5105 29.4512L31.8564 29.6269L32.3871 29.791L33.0497 29.907L33.79 29.9623L34.1703 29.965L34.9199 29.9191L35.6027 29.809L36.1663 29.646L36.5597 29.4512L36.7249 29.2734L36.7293 29.2001C36.7357 29.1115 36.7765 29.029 36.8429 28.9701C36.9094 28.9112 36.9963 28.8806 37.085 28.8849C37.129 28.8876 37.1722 28.8989 37.2118 28.9181C37.2515 28.9374 37.287 28.9643 37.3163 28.9974C37.3456 29.0304 37.3681 29.0689 37.3824 29.1106C37.3969 29.1524 37.4028 29.1965 37.4002 29.2406L37.392 29.3757C37.3897 29.4168 37.3798 29.457 37.363 29.4944L37.3022 29.6285C37.289 29.6572 37.2719 29.6839 37.2513 29.7078L37.1403 29.8381C37.1253 29.8553 37.1089 29.871 37.091 29.8852L36.9312 30.0093L36.685 30.1527L36.4027 30.2747L35.7466 30.4657L34.9915 30.5871L34.1807 30.6369Z" fill="#FC7C54"/>
<path d="M31.154 41.7832C31.1324 41.7834 31.1107 41.7814 31.0894 41.7772L31.0194 41.7635C30.9971 41.7591 30.9753 41.7526 30.9543 41.7439L30.579 41.5184L25.8537 38.0495C25.8515 38.0478 25.8105 38.0172 25.8077 38.0149L25.7509 37.9701L25.7038 37.9312C25.6818 37.9129 25.6621 37.8919 25.6453 37.8688C25.6049 37.8112 25.5796 37.7445 25.5714 37.6746L25.5336 37.5318C25.5275 37.5089 25.5239 37.4855 25.5227 37.4618L25.5046 37.0776L25.4893 31.2515L25.515 30.6721C25.5179 30.6509 25.522 30.63 25.527 30.6092C25.5552 30.534 25.5961 30.4642 25.6479 30.4029C25.6625 30.3852 25.6788 30.3691 25.6967 30.3547C25.7285 30.3313 25.7633 30.312 25.8 30.2973L26.0359 30.2344L30.6391 29.5045L30.6555 29.2364C30.6571 29.2113 30.6615 29.1865 30.6687 29.1625L30.7622 28.9185C30.7811 28.8778 30.8056 28.8401 30.835 28.8063L30.9778 28.6536C30.9929 28.6372 31.009 28.6217 31.026 28.6071L31.1825 28.4846L31.4276 28.3423L32.0136 28.1196L32.7128 27.9653L33.4898 27.8811L33.8931 27.8657L34.699 27.8887L35.4634 27.9839L36.1402 28.1448L36.6939 28.368L36.9166 28.5038C36.9319 28.513 36.9872 28.559 37.0003 28.5711C37.0031 28.5732 37.0436 28.6088 37.0463 28.6115L37.1453 28.6969C37.1661 28.7148 37.1847 28.7352 37.2006 28.7576L37.2947 28.8895C37.315 28.9178 37.3307 28.9492 37.3412 28.9825L37.4113 29.2079C37.4183 29.232 37.4227 29.2568 37.4243 29.2818L37.4375 31.2565L37.4808 31.3894C37.4935 31.4289 37.4987 31.4706 37.4961 31.512L37.4879 31.6521C37.4857 31.6933 37.4757 31.7338 37.4583 31.7714L37.3954 31.9097C37.3824 31.9387 37.3652 31.9656 37.3445 31.9897L37.2296 32.1237C37.2154 32.1407 37.1995 32.1561 37.182 32.1696L37.0179 32.2982L36.7629 32.4459L36.4734 32.5707L35.7987 32.7677L35.0201 32.8924L34.1847 32.9439L33.341 32.9187L32.5416 32.8208L31.8335 32.6517L31.2563 32.4186L31.0232 32.2769L30.8312 32.1138C30.8115 32.0965 30.7939 32.0771 30.7786 32.0558L30.6818 31.9196C30.6622 31.8915 30.6467 31.8607 30.6358 31.8282L30.5909 31.6893C30.5782 31.6492 30.5731 31.6071 30.5757 31.5651L30.5844 31.425C30.5866 31.3845 30.5964 31.3448 30.6134 31.3079L30.6358 31.2576V30.1862L26.6667 30.8133L31.0987 34.0606L42.0407 32.3152C42.1042 32.305 42.1692 32.311 42.2297 32.3328C42.2901 32.3545 42.3441 32.3912 42.3865 32.4394C42.4243 32.4895 42.4501 32.5475 42.462 32.6091C42.4637 32.62 42.4724 32.684 42.473 32.6949L42.4899 33.2738L42.514 39.0732L42.4993 39.472C42.4984 39.4942 42.4952 39.5162 42.49 39.5377L42.4331 39.7368C42.4051 39.8139 42.358 39.8827 42.2963 39.9366C42.2723 39.9535 42.2473 39.9689 42.2213 39.9825C42.171 40.0059 42.1181 40.0234 42.0638 40.0345L41.1987 40.1669L31.1584 41.7832H31.154ZM31.1737 41.1086L31.1847 41.1108L31.322 41.0982L31.6941 41.0025L41.8296 39.3839L41.8422 39.0655L41.8127 33.0331L31.1064 34.7403C31.0019 34.7572 30.8947 34.7363 30.8044 34.6811L26.1612 31.2762L26.1929 37.3945L26.2274 37.5269L26.2493 37.5056L31.1737 41.1086ZM26.037 37.6976L26.0091 37.7458L26.0517 37.7031L26.037 37.6976ZM31.3039 31.6346L31.4227 31.7385L31.7822 31.9218L32.331 32.0914L33.016 32.2118L33.7814 32.2692L34.1743 32.272L34.9485 32.2243L35.6549 32.1111L36.2376 31.942L36.6458 31.7401L36.8214 31.5355L36.8061 31.4868C36.7889 31.4533 36.7773 31.4173 36.7717 31.3801C36.77 31.3675 36.7661 31.3282 36.7661 31.3156L36.7169 29.2374L36.6086 29.1225L36.7804 28.8249L36.5605 29.0787L36.3744 28.9584L35.9378 28.7855L35.3453 28.6454L34.6482 28.5589L33.9035 28.5376L33.1664 28.5825L32.4956 28.6908L31.9419 28.8511L31.5546 29.0427L31.3587 29.2325L31.3247 29.3069L31.3089 29.5619L31.3094 29.7808C31.3094 29.7884 31.3089 29.7993 31.3077 29.8103L31.3066 31.3281C31.3003 31.3826 31.2881 31.4362 31.27 31.4879L31.2503 31.5432L31.3039 31.6346Z" fill="#FC7C54"/>
<path d="M25.0344 42.7617C25.0112 41.2732 25.079 39.5635 25.0028 38.0821C24.8019 37.7504 24.3022 37.5289 24.0039 37.2663C22.9771 36.5133 21.9385 35.7515 20.9118 34.9984C20.6687 34.8204 20.3956 34.6199 20.1528 34.4414C20.0153 34.3393 19.8595 34.1932 19.6727 34.2428C18.378 33.3632 16.1421 33.4786 14.6917 33.9159C14.4107 33.9679 14.1619 34.1293 13.9998 34.3646C13.8376 34.5999 13.7755 34.89 13.827 35.171C12.3892 35.4012 10.8386 35.647 9.4023 35.8768C9.19955 35.9483 8.81288 35.8764 8.70243 36.0882C8.64353 38.1591 8.6976 40.3914 8.6887 42.4647C8.70474 42.6029 8.68527 42.9386 8.77289 43.0562C8.88004 43.1459 9.02978 43.2465 9.1417 43.3314C9.57935 43.6525 10.0376 43.9885 10.4755 44.3097C11.6316 45.1349 12.7603 46.0337 13.939 46.8182C16.0737 46.5977 18.2958 46.1273 20.4306 45.826C21.8952 45.5415 23.5322 45.4318 24.9572 45.0464C24.9654 45.0174 24.9901 44.8599 25.0183 44.8436C25.0471 44.2651 25.0309 43.3467 25.0344 42.7617ZM19.9488 36.834L19.9478 36.7408C19.9572 36.7515 19.949 36.8207 19.9488 36.834ZM19.9607 36.7244L19.9606 36.7235L19.971 36.7379L19.9607 36.7244ZM19.9559 36.718L19.9474 36.7066V36.7049L19.956 36.7169L19.9559 36.718ZM13.8255 36.7187C13.8249 36.7831 13.8193 36.8475 13.809 36.9111L13.8174 36.7732L13.7749 36.8305L13.8255 36.7187Z" fill="white"/>
<path d="M8.95416 36.006L13.8572 35.2214C14.0676 35.9622 13.3886 37.0723 14.002 37.481C15.0709 37.9848 17.3394 38.5794 18.1363 37.6435C18.6932 34.3675 16.357 36.3409 14.4902 35.1279C12.9253 33.1841 18.7977 33.398 19.6881 34.263C26.034 38.1987 25.1607 37.7235 25.0386 44.9071C21.8012 46.0382 17.7232 46.0895 14.2125 46.8524C14.3028 39.5195 15.1426 40.2667 8.95612 36.0519L8.95416 36.006Z" fill="#FFB7A4"/>
<path d="M14.0537 39.8385L14.2129 46.6527L24.7693 44.8884V38.1649L14.0537 39.8385Z" fill="white"/>
<path d="M24.9849 38.3776C24.9352 38.3777 24.8862 38.3668 24.8414 38.3456C24.7965 38.3244 24.7569 38.2935 24.7255 38.255C24.5656 38.0841 24.3835 37.9356 24.1838 37.8134C24.0481 37.7204 23.9124 37.6274 23.7898 37.5257L20.0905 34.8129C20.0358 34.7768 19.9832 34.7377 19.9329 34.6958C19.881 34.6492 19.8231 34.6098 19.7606 34.5787C19.7052 34.594 19.6466 34.5938 19.5913 34.5781C19.536 34.5624 19.4861 34.5317 19.4471 34.4895C19.3954 34.4498 19.3403 34.4148 19.2824 34.385C19.2049 34.341 19.1481 34.2681 19.1243 34.1821C19.1006 34.0963 19.112 34.0045 19.156 33.927C19.1999 33.8495 19.2729 33.7927 19.3588 33.7689C19.4447 33.7453 19.5365 33.7566 19.6139 33.8006C19.6709 33.8323 19.7316 33.8679 19.7885 33.9062C20.0004 33.9302 20.1985 34.0231 20.3526 34.1704C20.3893 34.2014 20.4276 34.2303 20.4675 34.2569L24.203 36.996C24.3261 37.0967 24.4448 37.1771 24.5635 37.2586C24.8165 37.415 25.0457 37.6068 25.2442 37.8282C25.2723 37.8623 25.2934 37.9015 25.3063 37.9437C25.3191 37.9859 25.3236 38.0302 25.3193 38.0741C25.315 38.118 25.3021 38.1607 25.2814 38.1996C25.2606 38.2385 25.2324 38.273 25.1983 38.301C25.1384 38.3508 25.0628 38.3779 24.9849 38.3776Z" fill="#FC7C54"/>
<path d="M16.8403 36.0232C16.7073 36.0232 16.5815 36.0204 16.4649 36.015C14.6068 35.9335 13.5114 35.3858 13.535 34.5503C13.5348 34.5057 13.5437 34.4616 13.5612 34.4206C13.5788 34.3797 13.6045 34.3428 13.6369 34.3122C13.6692 34.2816 13.7075 34.2579 13.7494 34.2427C13.7912 34.2275 13.8357 34.2209 13.8802 34.2236C13.9243 34.2248 13.9678 34.2347 14.0081 34.2527C14.0484 34.2707 14.0848 34.2964 14.1151 34.3284C14.1455 34.3605 14.1692 34.3983 14.1849 34.4395C14.2007 34.4808 14.2081 34.5247 14.2068 34.5688C14.1981 34.8927 15.0697 35.2807 16.4945 35.3436C18.2055 35.4104 19.5591 34.9967 19.5843 34.5841C19.5865 34.54 19.5975 34.4967 19.6167 34.4568C19.6359 34.4168 19.6628 34.3812 19.6959 34.3518C19.729 34.3225 19.7677 34.3001 19.8096 34.2858C19.8515 34.2716 19.8958 34.2659 19.94 34.269C20.0289 34.2744 20.1121 34.3149 20.1712 34.3815C20.2303 34.4483 20.2605 34.5357 20.2552 34.6246C20.1889 35.7409 18.1683 36.0232 16.8403 36.0232Z" fill="#FC7C54"/>
<path d="M14.059 47.1693C13.9372 47.1712 13.8169 47.1422 13.7093 47.085L13.6261 47.0282C11.953 45.8151 10.2228 44.561 8.55181 43.2993C8.50565 43.2645 8.46924 43.2183 8.44612 43.1653C8.42301 43.1123 8.41405 43.0542 8.41993 42.9967C8.34331 42.2684 8.32104 41.5354 8.35319 40.8037C8.36089 40.3644 8.36908 39.9337 8.35319 39.5414C8.36579 39.102 8.35704 38.6452 8.34884 38.1801C8.32048 37.4516 8.33421 36.7221 8.38989 35.9953C8.39675 35.9312 8.42175 35.8704 8.46202 35.82C8.50222 35.7696 8.55594 35.7317 8.61694 35.7107C8.7762 35.6319 8.95038 35.5875 9.128 35.5805C9.18893 35.5766 9.24951 35.5678 9.30911 35.5543C10.0647 35.4356 10.8056 35.3162 11.547 35.1975C12.2014 35.0919 12.8557 34.9869 13.4921 34.8884C13.4834 34.7185 13.5143 34.5488 13.5824 34.3929C13.6505 34.237 13.7539 34.0991 13.8844 33.99C14.9957 33.2365 16.5972 33.0548 18.6638 33.4395L18.7749 33.4696C19.2739 33.613 20.0284 33.8291 20.2402 34.5037C20.2984 34.9152 20.3156 35.3314 20.2916 35.7463C20.2743 36.0694 20.2807 36.3932 20.3108 36.7153C20.339 36.8346 20.3406 36.9586 20.3156 37.0786C20.2906 37.1985 20.2397 37.3116 20.1663 37.4097C19.7116 38.0466 18.4061 38.2299 17.4639 38.3125C17.4551 38.3131 17.3999 38.3141 17.3917 38.3141C16.2071 38.3322 14.4185 38.353 13.5539 37.3265C13.5353 37.3041 13.5195 37.2795 13.5069 37.2532C13.4624 37.1566 13.4379 37.0521 13.435 36.9458C13.4321 36.8395 13.4508 36.7338 13.4899 36.6349C13.4915 36.3362 13.4915 36.0139 13.491 35.6993V35.5691C12.8886 35.6626 12.2709 35.7617 11.6536 35.8613C10.9347 35.9767 10.2163 36.0922 9.52307 36.1988C10.3996 36.8439 11.2778 37.4883 12.1576 38.132L13.9501 39.4456C17.592 38.8668 21.2815 38.278 24.9217 37.6958C24.968 37.6886 25.0153 37.691 25.0606 37.7031C25.106 37.7152 25.1483 37.7365 25.1849 37.766C25.2214 37.7953 25.2515 37.832 25.2731 37.8736C25.2946 37.9153 25.3072 37.9609 25.3101 38.0078C25.3665 38.9473 25.3572 39.9813 25.3484 40.981C25.3424 41.5999 25.3369 42.2116 25.3468 42.7894C25.3353 43.0372 25.3468 43.2993 25.3583 43.5712C25.408 44.0933 25.3822 44.6198 25.2817 45.1345C25.2652 45.1959 25.2315 45.2513 25.1848 45.2944C25.138 45.3376 25.08 45.3665 25.0174 45.378C23.4088 45.6696 21.7334 45.9295 20.1122 46.1811C19.0058 46.353 17.9016 46.5242 16.815 46.7059C16.537 46.7546 16.2367 46.8 15.9324 46.846C15.4285 46.9225 14.9081 47.0013 14.4529 47.1004C14.3256 47.1421 14.1929 47.1654 14.059 47.1693ZM9.07925 42.855C10.707 44.0817 12.3912 45.3024 14.0206 46.4837L14.0672 46.5177C14.0759 46.51 14.2357 46.464 14.2882 46.4492C14.7861 46.3398 15.3174 46.2594 15.8317 46.1811C16.131 46.1358 16.426 46.0914 16.7017 46.0432C17.7933 45.8605 18.9002 45.6887 20.0093 45.5169C21.5506 45.2773 23.1417 45.0304 24.6732 44.7563C24.7106 44.3719 24.715 43.9849 24.6864 43.5997C24.6743 43.3058 24.6628 43.0279 24.6749 42.7784C24.6645 42.2175 24.6699 41.5998 24.676 40.9749C24.6836 40.1181 24.6918 39.2361 24.6579 38.4192C21.091 38.9893 17.4809 39.5655 13.9167 40.1318C13.828 40.1455 13.7375 40.1234 13.665 40.0705L11.7604 38.6741C10.8461 38.0044 9.93229 37.334 9.01909 36.6628C9.00214 37.1438 9.01146 37.6619 9.02077 38.168C9.02952 38.6441 9.03828 39.1124 9.02511 39.5386C9.04101 39.9189 9.03331 40.3627 9.02567 40.8157C8.99668 41.4959 9.01454 42.1772 9.07925 42.855ZM14.1082 36.9385C14.791 37.6756 16.3482 37.6548 17.3829 37.6422C19.0469 37.4988 19.4966 37.1903 19.6191 37.019C19.6387 36.9935 19.6518 36.9637 19.6573 36.932C19.6628 36.9005 19.6607 36.868 19.6509 36.8373C19.6106 36.4689 19.6003 36.0978 19.6197 35.7277C19.6409 35.3704 19.63 35.0118 19.5874 34.6564C19.4955 34.3756 18.9932 34.2318 18.5894 34.1158L18.509 34.0928C16.6541 33.7509 15.2206 33.8958 14.2767 34.5355C14.1684 34.6186 14.1607 34.8069 14.1629 35.1045V35.1614L14.1635 35.6981C14.164 36.0407 14.164 36.3919 14.1618 36.7125C14.1616 36.7698 14.1467 36.8259 14.1186 36.8756C14.1094 36.8953 14.1057 36.917 14.1082 36.9385Z" fill="#FC7C54"/>
</g>
</g>
<defs>
<clipPath id="clip0_2_211">
<rect width="44.1227" height="46.9242" fill="white"/>
</clipPath>
</defs>
</svg>
