<svg width="13" height="13" viewBox="0 0 13 13" fill="none" xmlns="http://www.w3.org/2000/svg">
<path d="M4.33334 10.2917H2.70834V4.875H4.33334V10.2917ZM10.2917 10.2917H8.66668V7.39808C8.66668 6.64408 8.39801 6.26871 7.86555 6.26871C7.44359 6.26871 7.17601 6.47887 7.04168 6.89975V10.2917H5.41668C5.41668 10.2917 5.43834 5.41667 5.41668 4.875H6.69934L6.79847 5.95833H6.83205C7.16518 5.41667 7.69764 5.04942 8.4278 5.04942C8.98301 5.04942 9.43205 5.20379 9.77493 5.59162C10.12 5.98 10.2917 6.50108 10.2917 7.23287V10.2917Z" fill="#B5B5B5"/>
<path d="M3.52083 4.33325C3.98452 4.33325 4.36041 3.96948 4.36041 3.52075C4.36041 3.07202 3.98452 2.70825 3.52083 2.70825C3.05714 2.70825 2.68124 3.07202 2.68124 3.52075C2.68124 3.96948 3.05714 4.33325 3.52083 4.33325Z" fill="#B5B5B5"/>
</svg>
