<svg width="13" height="82" viewBox="0 0 13 82" fill="none" xmlns="http://www.w3.org/2000/svg">
<path fill-rule="evenodd" clip-rule="evenodd" d="M6.42794 13.5832C9.97799 13.5832 12.8559 10.7053 12.8559 7.15522C12.8559 3.60517 9.97799 0.72728 6.42794 0.72728C2.87789 0.72728 0 3.60517 0 7.15522C0 10.7053 2.87789 13.5832 6.42794 13.5832ZM6.42795 36.1785C9.978 36.1785 12.8559 33.3006 12.8559 29.7505C12.8559 26.2005 9.978 23.3226 6.42795 23.3226C2.87789 23.3226 8.27291e-06 26.2005 8.27291e-06 29.7505C8.27291e-06 33.3006 2.87789 36.1785 6.42795 36.1785ZM12.8559 52.3456C12.8559 55.8957 9.978 58.7736 6.42795 58.7736C2.87789 58.7736 8.27291e-06 55.8957 8.27291e-06 52.3456C8.27291e-06 48.7956 2.87789 45.9177 6.42795 45.9177C9.978 45.9177 12.8559 48.7956 12.8559 52.3456ZM6.42795 81.3689C9.978 81.3689 12.8559 78.491 12.8559 74.9409C12.8559 71.3909 9.978 68.513 6.42795 68.513C2.87789 68.513 8.27291e-06 71.3909 8.27291e-06 74.9409C8.27291e-06 78.491 2.87789 81.3689 6.42795 81.3689Z" fill="#CAC5DA"/>
</svg>
